<svg id="f10b31ec-46b0-410d-b705-ddff49c07163" data-name="Layer 1" xmlns="http://www.w3.org/2000/svg" viewBox="0 0 800 800"><defs><style>.b34fe4fd-c1d0-4c86-a39d-d2814fde5210{fill:#fff;}</style></defs><path class="b34fe4fd-c1d0-4c86-a39d-d2814fde5210" d="M127.41,649.5h-1.84c-.29-1.84-.2-12.49-.2-16.75-3.87,10.84-12.58,18.1-29.53,18.1-22,0-34.18-16.36-34.18-35.53,0-21.21,14.23-36.61,34.86-36.61,16.27,0,27.21,7.17,31.28,20.24h-2.14c-4.06-12.39-15.1-18.4-29.33-18.4-19.57,0-32.54,14.82-32.54,34.77,0,18,11.72,33.69,32.15,33.69,17.62,0,29.43-8.81,29.43-27.79v-4.74H96.13v-1.84h31.28Z"/><path class="b34fe4fd-c1d0-4c86-a39d-d2814fde5210" d="M148.12,615.22V649.5h-2V580.07h28.57c11.71,0,20.62,6,20.62,17.33,0,9.2-4.74,15.3-15.49,17,9.1,1.74,14.91,6.39,14.91,19.75V635c0,8,.2,12.69.68,14.53h-2.13c-.68-3.29-.68-7.65-.68-14.53v-.87c0-11.72-4.36-18.88-21.5-18.88Zm0-1.84h23.34c13.75,0,21.69-4.36,21.69-15.78,0-10.17-7.55-15.69-19.46-15.69H148.12Z"/><path class="b34fe4fd-c1d0-4c86-a39d-d2814fde5210" d="M213.67,580.07v40.28c0,23.14,14.05,28.66,25.76,28.66,15.3,0,26.05-7.26,26.05-28.85V580.07h2v39.7c0,22.76-11.23,31.08-28.08,31.08-17.23,0-27.79-10-27.79-30V580.07Z"/><path class="b34fe4fd-c1d0-4c86-a39d-d2814fde5210" d="M287.84,580.07h28.57c13.26,0,21.4,7.84,21.4,18.69,0,11.13-6.49,19.56-21.89,19.56H289.78V649.5h-1.94Zm1.94,36.41h26.43c13.27,0,19.57-7.07,19.57-17.72,0-8.52-6.4-16.85-19.28-16.85H289.78Z"/><path class="b34fe4fd-c1d0-4c86-a39d-d2814fde5210" d="M418.08,614.15c0,20.53-13.17,36.7-35.15,36.7-20.63,0-34.86-15.78-34.86-36.12,0-19.46,14.42-36,35.24-36C403.26,578.71,418.08,594.3,418.08,614.15Zm-67.88.49C350.2,632.84,363,649,383,649c19.27,0,32.93-14.23,32.93-34.66,0-18.21-13.46-33.8-32.73-33.8C364.91,580.55,350.2,595.37,350.2,614.64Z"/><path class="b34fe4fd-c1d0-4c86-a39d-d2814fde5210" d="M468.86,629.06c2,5.89,6.67,9.76,18,9.76,10.6,0,13.66-3.24,13.66-7.64,0-4.7-3.14-7.35-17.51-9.79-23.67-4-28-11.73-28-20.88,0-13.62,13.11-20.58,29.23-20.58,23.41,0,29.76,12,30.54,20H498.23c-1-3.38-3.24-7.9-14.49-7.9-7.88,0-11.88,2.51-11.88,6.92,0,3.94,2.81,5.92,15.61,8.22,25.92,4.65,30,12.47,30,22.36,0,11.82-9.28,21.38-32.15,21.38-21.33,0-30.94-9.53-33-21.81Z"/><path class="b34fe4fd-c1d0-4c86-a39d-d2814fde5210" d="M547.4,581.3v68.2H530.85V581.3Z"/><path class="b34fe4fd-c1d0-4c86-a39d-d2814fde5210" d="M565.33,581.3h56.13v13.16H581.88V610H618.8v13.26H581.88V649.5H565.33Z"/><path class="b34fe4fd-c1d0-4c86-a39d-d2814fde5210" d="M687.71,620.72H649.65v15.52H692l-1.9,13.26h-57V581.3h56.67v13.25H649.65v12.92h38.06Z"/><path class="b34fe4fd-c1d0-4c86-a39d-d2814fde5210" d="M72.36,688c.89,4,3.63,6,8.38,6,5.05,0,7.08-2.32,7.08-5.4,0-3.3-1.67-5.08-8.32-6.68-8.27-2-11-4.86-11-9.62,0-5.23,3.87-9.34,11.56-9.34,8.3,0,11.69,4.73,12.16,9.3H87.12c-.56-2.85-2.32-5.3-7.19-5.3-3.93,0-6.16,1.75-6.16,4.84s1.84,4.25,7.72,5.66c9.76,2.36,11.56,6.13,11.56,10.59,0,5.63-4.19,9.93-12.65,9.93S68,693.45,67.22,688Z"/><path class="b34fe4fd-c1d0-4c86-a39d-d2814fde5210" d="M126.56,685.07c0,7.27-4.2,13.14-11.9,13.14-7.27,0-11.64-5.54-11.64-13S107.34,672,115,672C122,672,126.56,677.23,126.56,685.07Zm-18.59,0c0,5.35,2.6,9.13,6.87,9.13s6.78-3.61,6.78-9.11-2.44-9.14-6.88-9.14S108,679.5,108,685.12Z"/><path class="b34fe4fd-c1d0-4c86-a39d-d2814fde5210" d="M137.63,697.62v-36h4.82v36Z"/><path class="b34fe4fd-c1d0-4c86-a39d-d2814fde5210" d="M175.69,690.34c0,2.43,0,5.65.05,7.28H171c-.1-.66-.15-2.15-.17-3.58-1.28,2.72-3.64,4.17-7.43,4.17-4.39,0-8.28-2.29-8.28-9.18v-16.4H160V688c0,3.18,1,6.06,4.91,6.06,4.32,0,6-2.38,6-8.37V672.63h4.82Z"/><path class="b34fe4fd-c1d0-4c86-a39d-d2814fde5210" d="M208.69,689.89c-1,4.27-3.94,8.32-10.51,8.32-7.05,0-11.26-5-11.26-13,0-7.12,4.1-13.22,11.58-13.22s9.9,5.31,10.19,8.45h-4.76c-.58-2.44-2.09-4.49-5.52-4.49-4.18,0-6.55,3.59-6.55,9.1s2.33,9.17,6.41,9.17c3,0,4.7-1.62,5.64-4.38Z"/><path class="b34fe4fd-c1d0-4c86-a39d-d2814fde5210" d="M219.72,661.62h4.82v5.54h-4.82Zm0,11h4.82v25h-4.82Z"/><path class="b34fe4fd-c1d0-4c86-a39d-d2814fde5210" d="M259.16,685.07c0,7.27-4.2,13.14-11.89,13.14-7.28,0-11.65-5.54-11.65-13S240,672,247.56,672C254.58,672,259.16,677.23,259.16,685.07Zm-18.59,0c0,5.35,2.6,9.13,6.87,9.13s6.78-3.61,6.78-9.11-2.43-9.14-6.88-9.14S240.57,679.5,240.57,685.12Z"/><path class="b34fe4fd-c1d0-4c86-a39d-d2814fde5210" d="M270.26,678.92c0-2.16,0-4.38-.05-6.29h4.68c.12.72.19,3.17.19,3.92,1-2,3-4.51,7.74-4.51s8.34,3,8.34,9.54v16h-4.82V682.17c0-3.59-1.37-6-5-6-4.37,0-6.22,3.21-6.22,8.11v13.37h-4.82Z"/><path class="b34fe4fd-c1d0-4c86-a39d-d2814fde5210" d="M307.07,686c0,4.7,2.39,8.21,6.47,8.21,3.75,0,4.94-1.87,5.71-3.63h4.85c-1,3.17-3.66,7.59-10.7,7.59-7.93,0-11.2-6.34-11.2-12.8,0-7.51,3.79-13.37,11.47-13.37,8.17,0,10.86,6.42,10.86,11.92a19.68,19.68,0,0,1-.07,2.08Zm12.59-3.27c-.05-3.88-1.94-7-6-7s-6,2.91-6.41,7Z"/><path class="b34fe4fd-c1d0-4c86-a39d-d2814fde5210" d="M338.55,690.4c.68,2.58,2.62,4.1,5.86,4.1,3.45,0,4.79-1.46,4.79-3.58s-1.13-3.19-5.67-4.3c-7.33-1.78-8.79-4-8.79-7.45S337.33,672,344,672s9.29,3.81,9.6,7.27h-4.64c-.33-1.48-1.44-3.63-5.17-3.63-3.26,0-4.25,1.55-4.25,3.09,0,1.75,1,2.61,5.46,3.68,7.73,1.82,9.18,4.41,9.18,8.12,0,4.33-3.41,7.64-9.9,7.64-6.69,0-9.86-3.35-10.48-7.81Z"/><path class="b34fe4fd-c1d0-4c86-a39d-d2814fde5210" d="M383.9,697.62V676.47h-4v-3.84h4v-2.84c0-4.7,1.91-8.66,7.41-8.66a11.49,11.49,0,0,1,2.85.32v4a10.24,10.24,0,0,0-2.05-.21c-2.47,0-3.39,1.39-3.39,4.86v2.52h4.88v3.84h-4.88v21.15Z"/><path class="b34fe4fd-c1d0-4c86-a39d-d2814fde5210" d="M403.28,661.62h4.82v5.54h-4.82Zm0,11h4.82v25h-4.82Z"/><path class="b34fe4fd-c1d0-4c86-a39d-d2814fde5210" d="M420.93,678.92c0-2.16,0-4.38-.05-6.29h4.68c.12.72.19,3.17.19,3.92,1-2,3-4.51,7.74-4.51s8.34,3,8.34,9.54v16H437V682.17c0-3.59-1.37-6-5-6-4.37,0-6.22,3.21-6.22,8.11v13.37h-4.82Z"/><path class="b34fe4fd-c1d0-4c86-a39d-d2814fde5210" d="M473.31,692a41.11,41.11,0,0,0,.35,5.65h-4.61a12.67,12.67,0,0,1-.4-3.11c-.88,1.61-2.82,3.7-7.58,3.7-5.92,0-8.44-3.86-8.44-7.68,0-5.6,4.42-8.17,11.82-8.17h4.13v-2c0-2.12-.69-4.63-5.08-4.63-3.93,0-4.62,1.91-5.05,3.84h-4.64c.34-3.64,2.59-7.54,9.85-7.52,6.22,0,9.65,2.53,9.65,8.27Zm-4.7-6.38H464.8c-4.82,0-7.27,1.36-7.27,4.66,0,2.45,1.65,4.27,4.62,4.27,5.7,0,6.46-3.86,6.46-8.16Z"/><path class="b34fe4fd-c1d0-4c86-a39d-d2814fde5210" d="M486.17,678.92c0-2.16,0-4.38-.05-6.29h4.69a39.14,39.14,0,0,1,.18,3.92c1-2,3-4.51,7.75-4.51s8.34,3,8.34,9.54v16h-4.82V682.17c0-3.59-1.37-6-5-6-4.37,0-6.23,3.21-6.23,8.11v13.37h-4.82Z"/><path class="b34fe4fd-c1d0-4c86-a39d-d2814fde5210" d="M539.92,689.89c-1,4.27-3.93,8.32-10.5,8.32-7,0-11.26-5-11.26-13,0-7.12,4.09-13.22,11.58-13.22s9.9,5.31,10.18,8.45h-4.75c-.58-2.44-2.09-4.49-5.53-4.49-4.17,0-6.54,3.59-6.54,9.1s2.33,9.17,6.41,9.17c3,0,4.69-1.62,5.64-4.38Z"/><path class="b34fe4fd-c1d0-4c86-a39d-d2814fde5210" d="M551,661.62h4.82v5.54H551Zm0,11h4.82v25H551Z"/><path class="b34fe4fd-c1d0-4c86-a39d-d2814fde5210" d="M571.73,686c0,4.7,2.39,8.21,6.48,8.21,3.74,0,4.94-1.87,5.71-3.63h4.84c-1,3.17-3.65,7.59-10.69,7.59-7.93,0-11.21-6.34-11.21-12.8,0-7.51,3.8-13.37,11.48-13.37,8.16,0,10.86,6.42,10.86,11.92a19.68,19.68,0,0,1-.07,2.08Zm12.6-3.27c-.05-3.88-2-7-6-7s-6,2.91-6.41,7Z"/><path class="b34fe4fd-c1d0-4c86-a39d-d2814fde5210" d="M600.25,679.41c0-3.29,0-5.31,0-6.78h4.72c.07.67.15,2.73.15,5a8.65,8.65,0,0,1,8.34-5.55v4.75c-5.11.09-8.34,2.51-8.34,8.93v11.9h-4.82Z"/><path class="b34fe4fd-c1d0-4c86-a39d-d2814fde5210" d="M641.75,692a41.11,41.11,0,0,0,.35,5.65h-4.61a12.67,12.67,0,0,1-.4-3.11c-.88,1.61-2.81,3.7-7.58,3.7-5.92,0-8.44-3.86-8.44-7.68,0-5.6,4.42-8.17,11.83-8.17H637v-2c0-2.12-.69-4.63-5.08-4.63-3.93,0-4.62,1.91-5.05,3.84h-4.64c.34-3.64,2.59-7.54,9.85-7.52,6.22,0,9.65,2.53,9.65,8.27Zm-4.7-6.38h-3.81c-4.82,0-7.27,1.36-7.27,4.66,0,2.45,1.65,4.27,4.62,4.27,5.7,0,6.46-3.86,6.46-8.16Z"/><path class="b34fe4fd-c1d0-4c86-a39d-d2814fde5210" d="M656.93,690.4c.68,2.58,2.62,4.1,5.85,4.1,3.46,0,4.8-1.46,4.8-3.58s-1.13-3.19-5.67-4.3c-7.34-1.78-8.8-4-8.8-7.45s2.6-7.13,9.24-7.13,9.29,3.81,9.59,7.27H667.3c-.33-1.48-1.43-3.63-5.16-3.63-3.27,0-4.25,1.55-4.25,3.09,0,1.75,1,2.61,5.46,3.68,7.72,1.82,9.17,4.41,9.17,8.12,0,4.33-3.41,7.64-9.9,7.64-6.69,0-9.85-3.35-10.47-7.81Z"/><path class="b34fe4fd-c1d0-4c86-a39d-d2814fde5210" d="M554,87.51c12.31.13,12.79.14,20.2.46-2.9-6.34-3.14-6.86-4.81-9.6-8.29-.59-9.36-.67-15.54-.87a56.16,56.16,0,0,0,.15,10"/><path class="b34fe4fd-c1d0-4c86-a39d-d2814fde5210" d="M469.35,89.37c13.82-1.66,14.37-1.73,22.95-2.45-.37-6.8-.39-7.2.05-10.16-10.26.66-11.32.74-18.53,1.48-3.09,5.56-3.22,5.78-4.47,11.13"/><path class="b34fe4fd-c1d0-4c86-a39d-d2814fde5210" d="M417,95.35c14.76-2.72,15.33-2.82,24.83-4.19,2.58-7.42,2.74-7.87,5.35-11.35-11.5,1.5-13,1.69-20.62,3-6.07,6.32-6.43,6.69-9.56,12.52"/><path class="b34fe4fd-c1d0-4c86-a39d-d2814fde5210" d="M387.67,102.56c13.87-3.83,14.7-4.06,24.16-6.13,5.37-8.2,5.7-8.69,10.41-12.8-12,2.5-12.93,2.71-20.48,4.73-8.72,7.33-9.25,7.77-14.09,14.2"/><path class="b34fe4fd-c1d0-4c86-a39d-d2814fde5210" d="M360.86,112.08c12.47-5,13.22-5.25,22-8.06,7.81-9.11,8.29-9.67,14.77-14.5-11.32,3.53-12.24,3.82-19.17,6.51-10.79,8.46-11.44,9-17.59,16"/><path class="b34fe4fd-c1d0-4c86-a39d-d2814fde5210" d="M337.7,123.91c10.53-6,11.17-6.41,18.88-10,9.68-10.15,10.26-10.75,18.11-16.4-10.11,4.56-10.94,4.94-16.86,8.28-12.29,9.69-13,10.25-20.13,18.07"/><path class="b34fe4fd-c1d0-4c86-a39d-d2814fde5210" d="M319.36,137.89c8.2-7.21,8.51-7.48,14.81-11.73,11-11.23,11.66-11.92,20.49-18.42-2,1.34-4.71,3.06-6.66,4.45l-3.17,2.38c-5,4.1-11.66,9.58-16.44,14-2.71,2.82-6.45,6.44-9,9.37"/><path class="b34fe4fd-c1d0-4c86-a39d-d2814fde5210" d="M519.79,104.61c14.14-.8,14.69-.83,23.23-1.06-5.55-9.63-6-10.43-9.7-15.69-10.57.18-11.68.2-19.28.56,2.76,7.56,3.42,9.35,5.75,16.19"/><path class="b34fe4fd-c1d0-4c86-a39d-d2814fde5210" d="M428.36,113.25c16.89-2.78,17.54-2.88,28.26-4.26-.56-10.34-.62-11.42-.35-17.13-13.86,1.71-15.31,1.9-24.72,3.43-2.35,9.62-2.44,10-3.19,18"/><path class="b34fe4fd-c1d0-4c86-a39d-d2814fde5210" d="M360.89,130.73c15.16-5.23,16.07-5.55,26.65-8.48,3.95-11.92,4.19-12.64,8-19.4-14,4-15.16,4.28-23.78,7.31-6.93,11.09-7.35,11.74-10.86,20.57"/><path class="b34fe4fd-c1d0-4c86-a39d-d2814fde5210" d="M332.58,143.25c13-6.42,13.75-6.8,23.12-10.53,5.81-12.68,6.16-13.44,11.38-20.83-12.56,5.08-13.58,5.5-21,9.25-8.52,12-9,12.75-13.48,22.11"/><path class="b34fe4fd-c1d0-4c86-a39d-d2814fde5210" d="M309.5,158.08c10.29-7.51,10.9-8,18.71-12.44,7.15-13.49,7.57-14.3,13.85-22.38-10.53,6.17-11.39,6.68-17.3,11.11-9.6,13-10.18,13.8-15.26,23.71"/><path class="b34fe4fd-c1d0-4c86-a39d-d2814fde5210" d="M494.38,132.44c17.22-1.58,17.89-1.64,28.55-2.31-4.69-13.24-5-14-8.21-22.12-14.16.86-15.64.95-25.49,1.84l5.15,22.59"/><path class="b34fe4fd-c1d0-4c86-a39d-d2814fde5210" d="M446.94,137.56c18.42-2.67,19.14-2.77,30.81-4.07-2.43-11.93-3.16-15.52-4.52-22.71-15.7,1.74-17.34,1.93-28,3.47.62,12.39.65,13.14,1.69,23.31"/><path class="b34fe4fd-c1d0-4c86-a39d-d2814fde5210" d="M408.42,144.76c19-3.94,19.71-4.09,32-6.15-1-13.51-1.09-15.24-1.14-23.44-16.63,2.83-18.38,3.12-29.44,5.44-1.26,12.77-1.36,13.81-1.39,24.15"/><path class="b34fe4fd-c1d0-4c86-a39d-d2814fde5210" d="M370.62,154.74c17.87-5.29,18.57-5.5,31.12-8.46.55-14.21.6-15.7,1.88-24.3-16.81,4.11-18.18,4.45-28.56,7.63-3.19,13.69-3.38,14.51-4.44,25.13"/><path class="b34fe4fd-c1d0-4c86-a39d-d2814fde5210" d="M337.29,167.42c15.36-6.54,16.29-6.93,27.25-10.68,2.13-15.25,2.27-16.16,4.9-25.32-15.08,5.34-16.32,5.78-25.35,9.75-4.67,14.41-4.94,15.27-6.8,26.25"/><path class="b34fe4fd-c1d0-4c86-a39d-d2814fde5210" d="M309.56,182.55c12.5-7.69,13.25-8.15,22.54-12.71,3.3-15.81,3.51-16.75,7.12-26.44-12.83,6.51-13.88,7-21.24,11.74-5.7,15.16-6,16.05-8.42,27.41"/><path class="b34fe4fd-c1d0-4c86-a39d-d2814fde5210" d="M288.37,199.9c9.38-8.89,9.75-9.23,17.06-14.52C309.5,169,309.74,168,314,157.77c-10.09,7.57-10.91,8.19-16.31,13.55-6.31,15.91-6.68,16.87-9.36,28.58"/><path class="b34fe4fd-c1d0-4c86-a39d-d2814fde5210" d="M553.59,161.83c18-1.35,18.69-1.39,29.75-1.91-5.3-16.25-5.62-17.23-9.63-27.48-15.26.71-16.85.8-27.51,1.59,3.94,14.11,4.65,16.64,7.39,27.8"/><path class="b34fe4fd-c1d0-4c86-a39d-d2814fde5210" d="M471.86,167.84c19.34-2.42,20.09-2.51,32.27-3.66-4-16.79-4.1-17.11-6.95-27.88-16.95,1.6-18.72,1.76-30.26,3.22,2.05,11.9,2.05,11.9,4.94,28.32"/><path class="b34fe4fd-c1d0-4c86-a39d-d2814fde5210" d="M390.57,183.82c19.54-4.93,20.7-5.22,33.77-7.95-1.72-16.52-1.95-18.65-2.54-29-18.34,3.86-20.69,4.36-32.4,7.38.14,16.09.15,17,1.17,29.61"/><path class="b34fe4fd-c1d0-4c86-a39d-d2814fde5210" d="M352.51,196.07c17.28-6.24,18.68-6.74,31.14-10.34-1-17.09-1.09-18.88-.83-29.73-17.59,5.28-19,5.72-29.68,9.7-1,16.75-1.11,17.76-.63,30.37"/><path class="b34fe4fd-c1d0-4c86-a39d-d2814fde5210" d="M320.41,210.94c14.6-7.59,15.47-8.05,26.14-12.5-.22-18.15-.23-19.23.85-30.5-15.16,6.53-16.39,7.09-25.26,11.84-1.77,16.95-1.92,18.34-1.73,31.16"/><path class="b34fe4fd-c1d0-4c86-a39d-d2814fde5210" d="M295.08,228.12c11.2-8.65,11.87-9.18,20.48-14.39.22-18.51.23-19.61,1.84-31.29-12.28,7.69-13.28,8.31-20.07,13.77-2.05,16.37-2.36,18.88-2.25,31.91"/><path class="b34fe4fd-c1d0-4c86-a39d-d2814fde5210" d="M285.59,181.56a157.82,157.82,0,0,1,7.93-13.85l5.59-7.44,1-1.29c5.42-6.25,12.89-14.36,18.79-20.17-6.38,8.4-6.75,8.9-9.5,14.53-14.65,15.66-15.52,16.59-23.84,28.22"/><path class="b34fe4fd-c1d0-4c86-a39d-d2814fde5210" d="M281.22,202.76c.77-10.61.8-11,3-17.64,12.73-17,13.49-18,23.87-28.63-2.8,9.13-3,9.66-3.18,15.69-14.54,17.11-15.41,18.14-23.68,30.58"/><path class="b34fe4fd-c1d0-4c86-a39d-d2814fde5210" d="M286.37,224.83c-4.09-11-4.25-11.39-5-18.33,12.59-18.18,13.34-19.27,23.56-31,1.43,9.67,1.51,10.24,4.23,16.53-14,18.48-14.82,19.59-22.82,32.76"/><path class="b34fe4fd-c1d0-4c86-a39d-d2814fde5210" d="M301.86,247.18c-8.95-10.69-9.67-11.57-13.55-18.5,12.32-19.68,12.8-20.46,22.58-33.12,6.25,10.06,6.49,10.45,12.09,16.76-12.66,19.4-13.68,21-21.12,34.86"/><path class="b34fe4fd-c1d0-4c86-a39d-d2814fde5210" d="M326.17,268.52c-12.81-10-13.86-10.81-20.72-17.59,10.92-20,11.81-21.59,20.76-35.2C336.35,225.23,337,225.8,345,231.8c-10.81,19.72-12.18,22.26-18.86,36.72"/><path class="b34fe4fd-c1d0-4c86-a39d-d2814fde5210" d="M358,288.37c-16.23-9.23-17.57-10-26.89-16.33,9.93-21.26,10.53-22.54,18.42-37,13.77,9,14.59,9.51,24.81,15.08-9.32,20.72-10.52,23.38-16.34,38.26"/><path class="b34fe4fd-c1d0-4c86-a39d-d2814fde5210" d="M396.08,306.42c-19-8.33-20.54-9-31.93-14.81,8.62-21.94,9.14-23.26,15.93-38.49,16.85,8.24,17.86,8.74,29.88,13.77-7.71,21.21-8.9,24.46-13.88,39.53"/><path class="b34fe4fd-c1d0-4c86-a39d-d2814fde5210" d="M438.88,322.35c-21-7.26-22.75-7.87-35.75-13,7.46-22.72,7.75-23.62,13.48-39.7,19.33,7.36,20.49,7.81,33.87,12.22-5.9,20.35-7.67,26.51-11.6,40.52"/><path class="b34fe4fd-c1d0-4c86-a39d-d2814fde5210" d="M484.77,335.92c-22.24-6.1-24.06-6.59-38.19-11.06C452,305,452,305,457.83,284.18c21.13,6.33,22.4,6.71,36.63,10.39-5.43,23.79-5.43,23.79-9.69,41.35"/><path class="b34fe4fd-c1d0-4c86-a39d-d2814fde5210" d="M532,346.88c-22.62-4.82-24.46-5.22-39.19-8.88,5.31-22.69,6.13-26.18,9.41-41.49,22.18,5.16,23.5,5.46,38.06,8.32-4.31,23.67-4.56,25.09-8.28,42.05"/><path class="b34fe4fd-c1d0-4c86-a39d-d2814fde5210" d="M578.88,355c-22.13-3.45-23.94-3.73-38.73-6.54,4.81-23.08,5.43-26.05,8.09-42.15,22.33,3.83,23.66,4.06,38,6-3.53,23.73-3.82,25.67-7.39,42.66"/><path class="b34fe4fd-c1d0-4c86-a39d-d2814fde5210" d="M622.08,360.43c-19.35-2.21-21.37-2.45-35.34-4.31,4.64-23.73,5.13-26.22,7.23-42.76,21,2.57,21.84,2.67,34.44,3.95-2.8,24.65-3,26.13-6.33,43.12"/><path class="b34fe4fd-c1d0-4c86-a39d-d2814fde5210" d="M657.6,363.59c-15.63-1.19-17.26-1.3-28.84-2.46,4.43-24.87,4.69-26.35,6.21-43.18,17.93,1.59,18.29,1.61,28.53,2.31-2.35,24.64-2.54,26.66-5.9,43.33"/><path class="b34fe4fd-c1d0-4c86-a39d-d2814fde5210" d="M684.63,364.87c-11.29-.36-12.74-.41-21.75-.94,4.39-24.68,4.66-26.16,5.88-43.34,13.73.75,14.27.78,21.87,1-2.31,25.12-2.45,26.63-6,43.27"/><path class="b34fe4fd-c1d0-4c86-a39d-d2814fde5210" d="M262.05,230.48c.9-3.28,2-7.7,3.19-10.9,3.62-8.29,8.61-19.26,12.75-27.3l.57-1L285.38,180c-4.92,10.16-5.21,10.77-6.73,17.47-10.64,18.57-11.27,19.68-16.6,33"/><path class="b34fe4fd-c1d0-4c86-a39d-d2814fde5210" d="M262.47,254.22c-1.67-11.1-1.84-12.26-1.06-19.71,8.42-19.5,8.93-20.66,16.6-33.34-.56,10.06-.62,11.35.83,18.33-10.48,19.66-11.12,20.83-16.37,34.72"/><path class="b34fe4fd-c1d0-4c86-a39d-d2814fde5210" d="M273.38,278.39c-7.07-11.94-7.35-12.4-9.82-20,8.45-20.74,8.77-21.54,16.32-35,4.29,11,4.55,11.69,9.31,18.79-9.91,20.22-10.71,21.87-15.81,36.23"/><path class="b34fe4fd-c1d0-4c86-a39d-d2814fde5210" d="M294.86,302.14c-11.69-11.18-12.65-12.09-18.49-19.6,8.14-21.43,8.46-22.26,15.69-36.47,9.25,10.87,9.8,11.51,17.47,18.38-9.17,21.19-9.91,22.92-14.67,37.69"/><path class="b34fe4fd-c1d0-4c86-a39d-d2814fde5210" d="M324.73,324.27c-15.41-10.31-16.66-11.15-25.29-18.2,7.23-21.3,7.82-23,14.43-37.92C327.14,278.37,327.94,279,338,285.37c-7.9,21.09-8.92,23.79-13.28,38.9"/><path class="b34fe4fd-c1d0-4c86-a39d-d2814fde5210" d="M361.45,344.45c-18.45-9.34-20-10.09-30.85-16.57,6.72-22.27,7.12-23.6,13-39.08,16.7,9.43,17.7,10,29.77,15.8-7.07,21.75-8,24.55-12,39.85"/><path class="b34fe4fd-c1d0-4c86-a39d-d2814fde5210" d="M403.36,362.42c-20.7-8.26-22.39-8.92-35-14.72,6.13-22.62,6.51-24,11.77-40,19.46,8.47,20.62,9,34.22,14.12-6.24,21.92-7.2,25.28-10.95,40.6"/><path class="b34fe4fd-c1d0-4c86-a39d-d2814fde5210" d="M448.74,377.87c-22-6.94-23.75-7.51-37.78-12.62,5.82-23.14,6.05-24,10.8-40.69,21.46,7.39,22.74,7.84,37.32,12.21-6.14,24-6.28,24.45-10.34,41.1"/><path class="b34fe4fd-c1d0-4c86-a39d-d2814fde5210" d="M495.78,390.43c-22.58-5.56-24.43-6-39-10.2,5.79-23.42,5.79-23.42,10.27-41.14,22.65,6.19,24,6.58,39,10.11-5.27,21.86-6.37,26.41-10.24,41.23"/><path class="b34fe4fd-c1d0-4c86-a39d-d2814fde5210" d="M542.66,400c-22.23-4.09-24-4.43-38.77-7.67,6.05-23.3,6.17-23.75,10.28-41.21,23,4.89,24.34,5.18,39.21,7.84-5.77,23.83-6.11,25.26-10.72,41"/><path class="b34fe4fd-c1d0-4c86-a39d-d2814fde5210" d="M587.57,406.35c-21-2.6-22.73-2.81-37-5.08,6.34-22.07,7-24.38,10.86-41,22.71,3.54,22.71,3.54,37.74,5.44-6,23.66-6.37,25.07-11.58,40.62"/><path class="b34fe4fd-c1d0-4c86-a39d-d2814fde5210" d="M626.62,410c-17.28-1.4-19.08-1.55-31.76-2.86,7.22-22.42,7.8-24.26,11.64-40.53,19.85,2.2,20.63,2.28,32.27,3.3-6.31,23.9-6.55,24.83-12.15,40.09"/><path class="b34fe4fd-c1d0-4c86-a39d-d2814fde5210" d="M657.13,411.63c-12.91-.49-14.57-.56-24.65-1.2,7.72-22.08,8.35-23.89,12.27-40,15.87,1.13,16.48,1.17,25.4,1.59-6.68,23.67-6.93,24.58-13,39.61"/><path class="b34fe4fd-c1d0-4c86-a39d-d2814fde5210" d="M250.47,285.66l.43-8.9L252.61,265c2.07-9.72,5.16-22.62,7.92-32.18l1.16-3.46c-2.82,11.46-3,12.14-3,19.63-6,20.82-6.32,22.06-8.25,36.69"/><path class="b34fe4fd-c1d0-4c86-a39d-d2814fde5210" d="M256.37,310.86c-4.55-12.46-4.73-12.95-5.63-20.89,3.55-21.8,3.69-22.65,8.22-36.87,2.05,11.8,2.18,12.51,5.5,20.12-5.87,21.49-6.22,22.77-8.09,37.64"/><path class="b34fe4fd-c1d0-4c86-a39d-d2814fde5210" d="M273.14,336c-10-12.32-10.38-12.81-14.67-20.78,3.47-22.21,3.61-23.07,8-37.79,7.4,12,7.69,12.47,14.55,20.16-5.59,21.61-6,23.38-7.92,38.41"/><path class="b34fe4fd-c1d0-4c86-a39d-d2814fde5210" d="M299.73,359.69c-14-11-15.08-11.9-22.63-19.48,3.45-22.51,3.57-23.39,7.84-38.54,12.08,11.3,12.79,12,22.26,19.07-5.26,22.37-5.58,23.72-7.47,38.95"/><path class="b34fe4fd-c1d0-4c86-a39d-d2814fde5210" d="M333.68,381c-17.21-9.83-18.62-10.62-28.6-17.48,3.3-22.24,3.49-23.58,7.42-39,15.83,10.42,16.77,11,28.42,17.51-4.87,22.31-5.27,24.14-7.24,38.95"/><path class="b34fe4fd-c1d0-4c86-a39d-d2814fde5210" d="M373.2,399.72c-19.61-8.55-21.21-9.26-33.08-15.31,3.19-20.76,3.6-23.43,7.23-38.91,18.82,9.41,20,10,33.25,15.73-4.71,22-5.21,24.29-7.4,38.49"/><path class="b34fe4fd-c1d0-4c86-a39d-d2814fde5210" d="M416.43,415.69c-21.11-7.23-22.84-7.81-36-13,3.66-21.12,3.89-22.39,7.49-38.38,21,8.28,22.25,8.77,36.64,13.67-4.75,20.94-5.48,24.17-8.1,37.74"/><path class="b34fe4fd-c1d0-4c86-a39d-d2814fde5210" d="M461.55,428.79c-21.73-5.83-23.51-6.31-37.46-10.64,4.41-21.08,4.49-21.48,8.28-37.61,22.3,6.9,23.63,7.32,38.54,11.29-3.85,15.14-7.17,28.22-9.36,37"/><path class="b34fe4fd-c1d0-4c86-a39d-d2814fde5210" d="M506.73,439c-21.48-4.42-23.23-4.78-37.38-8.22,3.8-14.48,7.4-28.21,9.62-36.82,22.76,5.48,24.12,5.8,38.92,8.82-6.43,21.65-6.54,22.06-11.16,36.22"/><path class="b34fe4fd-c1d0-4c86-a39d-d2814fde5210" d="M550.26,446.16c-20.42-3-22.1-3.24-35.88-5.75,6.14-18.47,7.25-21.79,11.52-36.11,22.31,4,23.65,4.24,37.81,6.26-7.39,20.85-7.83,22.1-13.45,35.6"/><path class="b34fe4fd-c1d0-4c86-a39d-d2814fde5210" d="M590.32,450.47c-17.72-1.58-20.45-1.82-32.87-3.36,7.82-18.73,8.83-21.13,13.87-35.51,21.39,2.54,21.39,2.54,34.72,3.77-8.34,20.29-9,21.94-15.72,35.1"/><path class="b34fe4fd-c1d0-4c86-a39d-d2814fde5210" d="M622.89,452.5c-13.87-.67-15.66-.75-26.35-1.54,9.55-19.13,10.35-20.7,16-35,17.4,1.35,18.09,1.4,28,1.9-9.66,20.93-10,21.74-17.65,34.66"/><path class="b34fe4fd-c1d0-4c86-a39d-d2814fde5210" d="M646.73,452.89c-10,0-11.08,0-19.11-.22,10.79-18.84,11.67-20.38,18-34.59,13.14.44,13.65.46,20.67.48-10.64,20.77-11.06,21.58-19.54,34.33"/><path class="b34fe4fd-c1d0-4c86-a39d-d2814fde5210" d="M252.45,342.84l-1.1-5.94c-.92-9.67-1.89-22.59-2.14-32.3l.76-18.7c-.06,12.35-.06,12.58,1.4,19-.63,20.67-.71,23.32,1.08,38"/><path class="b34fe4fd-c1d0-4c86-a39d-d2814fde5210" d="M263.46,367.36c-7-12-7.31-12.49-9.85-20.27-1.76-19.74-2-22.78-1.1-37.85,4.69,12.36,5,13.1,10,20.94-.65,20.39-.73,23,.94,37.18"/><path class="b34fe4fd-c1d0-4c86-a39d-d2814fde5210" d="M284.8,391c-11.93-11.29-12.63-11.95-18.4-19.46-1.57-19.14-1.82-22.09-.86-37,10.06,12.17,10.46,12.64,18.88,20.26-.84,20-.95,22.56.38,36.21"/><path class="b34fe4fd-c1d0-4c86-a39d-d2814fde5210" d="M314.43,412.45c-15.22-9.9-16.47-10.71-25.05-17.61-1.14-18.51-1.32-21.37-.27-36.06,14.16,11,15,11.65,25.68,18.41-1.13,20-1.25,22.11-.36,35.26"/><path class="b34fe4fd-c1d0-4c86-a39d-d2814fde5210" d="M350,431.31c-17.77-8.64-19.22-9.34-29.8-15.43-.62-19.08-.66-20.64.54-35.07,17.38,9.78,18.42,10.37,30.87,16.31-1.73,20.35-1.84,21.56-1.61,34.19"/><path class="b34fe4fd-c1d0-4c86-a39d-d2814fde5210" d="M389.52,447.4c-19.4-7.3-21-7.89-33-13.13.29-18.75.3-19.86,1.87-34,19.71,8.5,20.89,9,34.52,14.08-2.5,19-2.76,21-3.41,33"/><path class="b34fe4fd-c1d0-4c86-a39d-d2814fde5210" d="M431.18,460.69c-19.74-5.82-21.81-6.44-34.61-10.81,1.53-17.58,1.65-19,3.78-32.85,21.16,7.13,22.43,7.56,36.66,11.73-3.62,18.21-4.08,20.55-5.83,31.93"/><path class="b34fe4fd-c1d0-4c86-a39d-d2814fde5210" d="M473.17,471.17c-20-4.6-21.67-5-34.76-8.49,3.18-17.35,3.31-18,6.3-31.74,21.71,5.75,23,6.09,37.26,9.32-3.14,11-6.38,22.3-8.8,30.91"/><path class="b34fe4fd-c1d0-4c86-a39d-d2814fde5210" d="M513.8,478.85c-19.12-3.27-20.68-3.54-33.5-6.17,2.15-7.08,7.39-24.22,9.34-30.74,21.42,4.35,22.7,4.6,36.41,6.9-7.07,18-7.34,18.68-12.25,30"/><path class="b34fe4fd-c1d0-4c86-a39d-d2814fde5210" d="M551.51,483.81c-17.5-2-18.93-2.14-31-3.92,6.91-15.31,8-17.66,12.89-29.86,20.33,2.92,21.54,3.1,34.19,4.47-9,17.5-9.58,18.55-16.09,29.31"/><path class="b34fe4fd-c1d0-4c86-a39d-d2814fde5210" d="M584.43,486.29c-13.35-.79-16.93-1-26.84-1.88,9.25-15.1,10.45-17.05,16.77-29.22,18.33,1.6,19.06,1.64,29.63,2.31-11.08,17.65-11.52,18.33-19.56,28.79"/><path class="b34fe4fd-c1d0-4c86-a39d-d2814fde5210" d="M609.24,487c-10.31-.13-11.65-.14-20-.48,11.7-15.4,12.66-16.65,20.1-28.72,14.15.63,14.71.67,22.47.78-12.72,17.47-13.23,18.15-22.62,28.42"/><path class="b34fe4fd-c1d0-4c86-a39d-d2814fde5210" d="M191.54,405H67.37C155.18,525.72,594.9,509.9,594.9,509.9,285.15,487.94,211,428,191.54,405Z"/></svg>