<svg id="f3d7b2a6-7ed4-40a8-a238-283f8c19387f" data-name="Layer 1" xmlns="http://www.w3.org/2000/svg" xmlns:xlink="http://www.w3.org/1999/xlink" viewBox="0 0 1638.21 597.82"><defs><style>.e1510370-f0ee-4b0e-b74e-7298cb64df03{fill:#d1d3d4;}.a8c24b74-0b76-4366-8e81-2638429854df{clip-path:url(#fada97cd-db72-48fc-aca0-105a9fde63f6);}.bb1db28d-6f70-4a22-9712-7dfe2e53f958{fill:#20478a;}.ab16dea2-b2b9-4e00-86d8-8eb8d418901c{fill:url(#ae992f2e-4a57-46c4-a1e6-fac8d68157b1);}.be9cd41d-5a3c-4491-a992-c861f40a7e16{fill:url(#e9330390-0103-4294-bdf8-2b0d5f9545f8);}.a29fc101-98c2-44af-b7a6-fa2c541285db{fill:url(#a6377325-af48-434b-87ea-d1d6c0417364);}.e7cc7b43-766b-463d-a2f7-153a55524dd3{fill:url(#afbe0594-4a9a-4a0e-ae50-753b837d156b);}.f25fdabd-4f93-49e5-8789-3151ef190e98{fill:url(#bc44b8e1-5bef-4b58-8c96-da64618edc5b);}.a2f0b3b0-0fa9-483a-ac26-a46112136160{fill:url(#b806f04b-8179-49b6-8545-bc3a491bd505);}.a33afcd9-7915-447a-b723-be4756f1f7bb{fill:url(#a5dd05e5-e842-4d88-86d3-521ea55b4b72);}.f9476fb8-5948-41c5-84ca-aca39b897c1b{fill:url(#ff9303d6-3a8f-4a3f-bf2c-f6b5218062bd);}.bf74994a-e9f3-4ec4-8fb6-4ae850ef481b{fill:url(#e48bac74-7e4b-4606-8039-e0cfc1d2aa1a);}.b699a2d2-3262-48b9-a6f3-965fb15625e9{fill:url(#e8f00f39-73df-4a90-86b4-7ef8cfc10bb0);}.b3c8cda4-a2e4-45ca-b7fa-71a84735475c{fill:url(#fd5f42cd-3b4e-4acd-a6cb-c4c6e23f1689);}.aa16dc82-0755-4b97-8c31-3516f81ee4ad{fill:url(#be08384e-6752-47c7-904c-925e20f4a74a);}.a7751fae-776b-4b30-9697-491403f2413e{fill:url(#f5a9fc9f-cfe0-410f-922a-2806d8189c38);}.a9f808b6-11aa-453e-87c4-3680a554ec9a{fill:url(#b401be25-001d-4030-806f-07fc56e2ab9c);}.b0bc9c65-609c-4352-9eda-c5b2624b9215{fill:url(#bae2f2de-05cc-47f2-a95b-a85e54f016ee);}.e4ac96e2-4085-4357-996c-e3dd4036120a{fill:url(#a443da0c-7074-484d-8b92-3b23d4c1625f);}.aa0c36ea-e2c4-4d08-b7b5-18419b8cc7b5{fill:url(#a89caa8f-ebf4-49fd-906e-62b5bd3697a1);}.e5303544-5c60-41a0-bfd7-54f331398824{fill:url(#a721af2d-0551-46dc-86ab-736782da65b2);}.e747128b-b636-4467-9459-c528be07cfc1{fill:url(#f9fcae81-36a3-4382-a33e-2eb5aaa6680b);}.ab6f9506-2288-4882-9352-36e987337359{fill:url(#f32ffdf0-5ccf-4b58-8919-0b5ab871640e);}.e2e42e41-765e-4fb6-8ef2-d8bbce2c6c2b{fill:url(#b52c3509-321e-45bb-95c7-c8e37fa17611);}.a145abee-8e86-4a00-883e-4fb8e61e6e5f{fill:url(#e58a557d-e16a-436f-b899-e3eaa600b892);}.a75913a7-a044-434a-a824-4c2dbaf04a27{fill:url(#b98f01f0-e6c4-4653-8495-d753fe0cf8e4);}.a92cb486-aeba-4fbc-bcb5-9b483f5de40e{fill:url(#f1ace280-4dce-472e-b5c3-d79bb90c5cbb);}.a80e2b92-37b4-4485-95d2-90e802929dbe{fill:url(#b9ddfc46-b57a-4d2c-9244-efc5cd862008);}.bf586551-6c3a-4aa8-b509-b84ce3644ad6{fill:url(#f0bd3ff2-f1f3-4a4e-af10-8f999896726f);}.bb4fe03c-7cc3-403e-9794-68390fdc7855{fill:url(#a4da5183-b4a8-45d8-b094-fa8da1b7caa6);}.ab151b31-8118-48f8-9303-5b5ba823d86f{fill:url(#a9f46ab8-9201-4ea4-a2b7-13cd91cd0507);}.e1f6916a-771e-4c9b-9987-98cf07c96a7f{fill:url(#ed456c7a-8277-4165-858b-e8e94585c1b0);}.a9c4bbaf-49e1-4c50-964b-0a027db72277{fill:url(#e9b8673a-9ac6-49d4-81c1-a1cf94f35ba5);}.fce03471-0a82-4b39-97b2-e04540d4feea{fill:url(#b3d81694-93f4-4dfb-8907-e75e359bdded);}.aecdfe07-c783-4ef1-a383-a6a6b6c1eb2e{fill:url(#a5746a73-cd81-47b7-a852-59e2a8c5d351);}.fca44b42-6b65-4a43-8030-a3963da60392{fill:url(#b068a678-1eb2-48bc-9f4c-ef5a460b61b2);}.ea1e7447-b1cd-4f40-9c59-0e76021cdfe7{fill:url(#b337a080-072c-4994-baec-17bfd674d8d4);}.ba1ad664-d305-4bfc-b16f-34508fd7910b{fill:url(#a93c7b6a-7576-4479-bb0c-84740c9ee432);}.b1845712-dd78-410b-812b-c14a0352a931{fill:url(#b34d7c88-bc5c-4dba-a8a9-a453859e749e);}.b8288f01-38e8-4541-a196-1aac80bf91b0{fill:url(#bb81e235-8979-40ff-8b98-f34bf5d893e5);}.e6fefb35-0cd1-4962-8d29-968f1e41e5f3{fill:url(#b41a61ac-34c4-49ea-8a14-7807f3458ca3);}.b4da156c-f2d5-4084-be5e-ee9dc1d6d422{fill:url(#b6b7f8f3-a59c-4e40-b68d-36892b1fef5b);}.a6ccbc37-98c2-46c6-a53d-a6a4c6e68cfc{fill:url(#f4324773-c1ad-4e63-9e9c-46632282d27c);}.acf1d2b3-d09b-440b-9bfd-0c49ceda898b{fill:url(#ad6dada0-7f13-4daf-84ba-040821dc1233);}.ebba216d-08e5-43ea-a6ce-ab61855aa28d{fill:url(#b48921b9-656a-4e1f-9307-fccc4148ba74);}.ee3faee5-f23f-46a1-b99f-d2354ff5ccbd{fill:url(#bdccbbde-998a-4d81-86c3-4fd0c86e773a);}.eb18f862-f5e3-42e6-8e9a-95c6ba5b8986{fill:url(#e4f402b1-1434-4b13-a31b-9a3635947542);}.ac2b33ac-46eb-4fe6-8758-2b8abbc1bc0a{fill:url(#b31194c4-5748-49b1-b01f-56ebfb0f8851);}.b8757975-4ee6-4914-a6ff-ea2ddbda923b{fill:url(#ad9a67cd-4fed-4032-9f8f-5b2d56b7b268);}.afc40c3e-92fa-4695-b7f3-8a0af0719a57{fill:url(#bfbf8034-54a0-489b-8955-c4c37c3f4f0f);}.ffd412ca-c9ce-4d39-876c-7da8c21fb97a{fill:url(#b5008b64-0adf-4e91-a788-fdd12c240704);}.a937df6c-bf29-4a8b-a47e-3bc5538c07b9{fill:url(#a8e40a23-e761-46db-bc2c-6c665638b0f6);}.b209d128-cf12-4f7d-a326-8ed05a9b079f{fill:url(#a959f2e8-174f-4499-b892-dea6ea13a1e1);}.e78a10b0-c1f8-49af-839e-c98263a8edfd{fill:url(#afa80901-c4d6-48c5-aa6d-494fddf0a7da);}.a0c390b9-11cf-4eac-81ee-2f253989a936{fill:url(#bcaf2014-58b0-4c2f-8253-9c6aef8a2f00);}.a6d2c58a-05fb-49b4-b640-a0d8462159a4{fill:url(#aeb203b1-0ab0-4ed0-833d-b474025c7ba6);}.f1b079f9-3b1c-415b-96a4-a9b57bcc41e9{fill:url(#bd37cd52-3b05-4efd-b048-b9ca909a0b75);}.e4fbe6bb-8ae6-49ce-96e8-231ec18d54b2{fill:url(#b6094016-7f30-422a-bbde-c387d61811c1);}.bee06f96-377c-4e9e-8f08-9bea4786d3c5{fill:url(#b3d1115f-0082-4857-843b-e68fbb8ef639);}.b19d2c6c-5f8d-4542-a274-607cc07e8ea3{fill:url(#bc763cc8-32f5-43fe-9003-159ec1668d39);}.a7269919-cf7f-4629-ae9e-98c436b9adb5{fill:url(#a838abf3-77e8-4279-8b6e-d2b2bf6f7a5a);}.f35492a3-4d24-4da4-a129-83a837da1313{fill:url(#a9127d4a-5ddd-451e-865f-c06caa2d4a4e);}.a98b450d-d112-450c-806b-9c163a0bfd3d{fill:url(#f02ae97b-8ef0-40b8-9540-4f55a2e0e0ed);}.ad70520c-e9b6-458d-a36d-a267a89a7f3f{fill:url(#a320ccb1-9358-428d-993e-3874155249d4);}.a50a0379-71d3-44be-8eb1-bf81c126ed55{fill:url(#ba623f2c-4420-441b-9ae6-8660037f260b);}.bdcc5700-aa21-44b7-a57d-a369b2b48ba7{fill:url(#b322e02a-10bf-4260-a141-fd44ac223c5e);}.fa6dbfed-a6b7-4146-bd2e-2ddabc134d23{fill:url(#ee3ca136-f63f-47f2-9487-a89a5935136f);}.a1bfe6c4-d4a3-43eb-8981-4903309e60cf{fill:url(#bd1c66bc-8868-4c6a-8dc0-615020c7c4a2);}.bb719056-33d4-457d-afdc-a85b3f07f1bd{fill:url(#ecb872ed-53f6-4c56-a616-dddd8cd0ba0c);}.e1dc487c-d41c-4b19-a929-3a067d8cd960{fill:url(#ac409198-6f03-4004-a51d-9f9b3101faae);}.fd4976f4-2aca-446e-9f3a-dd195eb1fb22{fill:url(#b01de6c3-0a9e-4c1b-a834-d4dfe5f79390);}.fcb582c2-5e39-4cf6-a81c-13a8c0aa8ff5{fill:url(#a6b17dfc-54f9-4aba-a618-55708f137cf0);}.b1b24bb9-2ff8-4d2a-a413-b3f68d2a83a2{fill:url(#e2778ae4-e4ba-4e7c-9e14-c78d1c7456af);}.b47e66c0-d3ab-4097-a8dd-5ecd88b0ebdf{fill:url(#a93b28ac-03bd-4b35-b5f0-86d7004f44e1);}.b3a0ac3f-e26b-432f-a41f-97c3196a8468{fill:url(#ea5dd058-1806-4952-be72-bb25e51d21e1);}.b2b08900-73c3-4803-b988-ff18ad3bfe55{fill:url(#acf5b730-7829-4e49-baa7-9fb5d720f635);}.b1f42065-bece-4e9e-9496-72a28aec93fe{fill:url(#b490be98-52db-4341-bf97-4ac19b1d54bd);}.a80baf3f-b4d4-4bc3-85eb-f9e80635ddc5{fill:url(#aa38edce-1ef9-4640-bd01-033aa282100b);}.bb3cd38a-d36e-441e-bedb-221f7ee4eb9e{fill:url(#b96bcf66-2e6a-4334-a8f3-4624dd8722da);}.ed7d1d2b-e71f-4f68-8393-9d709977d346{fill:url(#ea55fc62-65da-4623-9036-17d04e64be58);}.b31cd4cb-1e23-43d2-91cd-86a98e6e1f1a{fill:#231f20;}</style><clipPath id="fada97cd-db72-48fc-aca0-105a9fde63f6"><path class="e1510370-f0ee-4b0e-b74e-7298cb64df03" d="M259.39,395.06H135.22C223,515.74,662.75,499.92,662.75,499.92,353,478,278.82,418,259.39,395.06Z"/></clipPath><linearGradient id="ae992f2e-4a57-46c4-a1e6-fac8d68157b1" x1="327.36" y1="141.65" x2="656.82" y2="67.11" gradientUnits="userSpaceOnUse"><stop offset="0" stop-color="#00356d"/><stop offset="0.21" stop-color="#00407a"/><stop offset="0.6" stop-color="#005d9d"/><stop offset="1" stop-color="#0080c6"/></linearGradient><linearGradient id="e9330390-0103-4294-bdf8-2b0d5f9545f8" x1="323.35" y1="124.08" x2="652.84" y2="49.53" xlink:href="#ae992f2e-4a57-46c4-a1e6-fac8d68157b1"/><linearGradient id="a6377325-af48-434b-87ea-d1d6c0417364" x1="321.96" y1="117.76" x2="651.38" y2="43.23" xlink:href="#ae992f2e-4a57-46c4-a1e6-fac8d68157b1"/><linearGradient id="afbe0594-4a9a-4a0e-ae50-753b837d156b" x1="321.79" y1="117.21" x2="651.3" y2="42.66" xlink:href="#ae992f2e-4a57-46c4-a1e6-fac8d68157b1"/><linearGradient id="bc44b8e1-5bef-4b58-8c96-da64618edc5b" x1="322.22" y1="119.07" x2="651.7" y2="44.52" xlink:href="#ae992f2e-4a57-46c4-a1e6-fac8d68157b1"/><linearGradient id="b806f04b-8179-49b6-8545-bc3a491bd505" x1="323.25" y1="123.56" x2="652.7" y2="49.02" xlink:href="#ae992f2e-4a57-46c4-a1e6-fac8d68157b1"/><linearGradient id="a5dd05e5-e842-4d88-86d3-521ea55b4b72" x1="324.92" y1="130.92" x2="654.34" y2="56.39" xlink:href="#ae992f2e-4a57-46c4-a1e6-fac8d68157b1"/><linearGradient id="ff9303d6-3a8f-4a3f-bf2c-f6b5218062bd" x1="328.48" y1="146.62" x2="657.93" y2="72.08" xlink:href="#ae992f2e-4a57-46c4-a1e6-fac8d68157b1"/><linearGradient id="e48bac74-7e4b-4606-8039-e0cfc1d2aa1a" x1="325.69" y1="134.3" x2="655.14" y2="59.76" xlink:href="#ae992f2e-4a57-46c4-a1e6-fac8d68157b1"/><linearGradient id="e8f00f39-73df-4a90-86b4-7ef8cfc10bb0" x1="325.61" y1="134.07" x2="655.1" y2="59.52" xlink:href="#ae992f2e-4a57-46c4-a1e6-fac8d68157b1"/><linearGradient id="fd5f42cd-3b4e-4acd-a6cb-c4c6e23f1689" x1="326.54" y1="138.21" x2="656.08" y2="63.65" xlink:href="#ae992f2e-4a57-46c4-a1e6-fac8d68157b1"/><linearGradient id="be08384e-6752-47c7-904c-925e20f4a74a" x1="328.18" y1="145.5" x2="657.74" y2="70.93" xlink:href="#ae992f2e-4a57-46c4-a1e6-fac8d68157b1"/><linearGradient id="f5a9fc9f-cfe0-410f-922a-2806d8189c38" x1="332.46" y1="164.64" x2="662.04" y2="90.07" xlink:href="#ae992f2e-4a57-46c4-a1e6-fac8d68157b1"/><linearGradient id="b401be25-001d-4030-806f-07fc56e2ab9c" x1="331.19" y1="158.72" x2="660.69" y2="84.17" xlink:href="#ae992f2e-4a57-46c4-a1e6-fac8d68157b1"/><linearGradient id="bae2f2de-05cc-47f2-a95b-a85e54f016ee" x1="330.65" y1="156.35" x2="660.14" y2="81.8" xlink:href="#ae992f2e-4a57-46c4-a1e6-fac8d68157b1"/><linearGradient id="a443da0c-7074-484d-8b92-3b23d4c1625f" x1="330.68" y1="156.5" x2="660.18" y2="81.95" xlink:href="#ae992f2e-4a57-46c4-a1e6-fac8d68157b1"/><linearGradient id="a89caa8f-ebf4-49fd-906e-62b5bd3697a1" x1="331.43" y1="159.75" x2="660.89" y2="85.21" xlink:href="#ae992f2e-4a57-46c4-a1e6-fac8d68157b1"/><linearGradient id="a721af2d-0551-46dc-86ab-736782da65b2" x1="332.92" y1="166.42" x2="662.45" y2="91.86" xlink:href="#ae992f2e-4a57-46c4-a1e6-fac8d68157b1"/><linearGradient id="f9fcae81-36a3-4382-a33e-2eb5aaa6680b" x1="335.21" y1="176.51" x2="664.72" y2="101.96" xlink:href="#ae992f2e-4a57-46c4-a1e6-fac8d68157b1"/><linearGradient id="f32ffdf0-5ccf-4b58-8919-0b5ab871640e" x1="341.21" y1="202.92" x2="670.68" y2="128.38" xlink:href="#ae992f2e-4a57-46c4-a1e6-fac8d68157b1"/><linearGradient id="b52c3509-321e-45bb-95c7-c8e37fa17611" x1="338.37" y1="190.51" x2="667.88" y2="115.96" xlink:href="#ae992f2e-4a57-46c4-a1e6-fac8d68157b1"/><linearGradient id="e58a557d-e16a-436f-b899-e3eaa600b892" x1="337.4" y1="186.15" x2="666.88" y2="111.6" xlink:href="#ae992f2e-4a57-46c4-a1e6-fac8d68157b1"/><linearGradient id="b98f01f0-e6c4-4653-8495-d753fe0cf8e4" x1="337.86" y1="188.15" x2="667.31" y2="113.61" xlink:href="#ae992f2e-4a57-46c4-a1e6-fac8d68157b1"/><linearGradient id="f1ace280-4dce-472e-b5c3-d79bb90c5cbb" x1="339.09" y1="193.64" x2="668.58" y2="119.09" xlink:href="#ae992f2e-4a57-46c4-a1e6-fac8d68157b1"/><linearGradient id="b9ddfc46-b57a-4d2c-9244-efc5cd862008" x1="341.16" y1="202.75" x2="670.59" y2="128.22" xlink:href="#ae992f2e-4a57-46c4-a1e6-fac8d68157b1"/><radialGradient id="f0bd3ff2-f1f3-4a4e-af10-8f999896726f" cx="516.42" cy="351.84" r="182.98" gradientUnits="userSpaceOnUse"><stop offset="0" stop-color="#4ff"/><stop offset="0" stop-color="#44fefe"/><stop offset="0.14" stop-color="#3acee0"/><stop offset="0.27" stop-color="#32a4c5"/><stop offset="0.41" stop-color="#2c83b0"/><stop offset="0.55" stop-color="#27689f"/><stop offset="0.69" stop-color="#235693"/><stop offset="0.84" stop-color="#214b8c"/><stop offset="1" stop-color="#20478a"/></radialGradient><radialGradient id="a4da5183-b4a8-45d8-b094-fa8da1b7caa6" cx="516.42" cy="351.8" r="182.96" xlink:href="#f0bd3ff2-f1f3-4a4e-af10-8f999896726f"/><radialGradient id="a9f46ab8-9201-4ea4-a2b7-13cd91cd0507" cx="516.47" cy="351.74" r="182.96" xlink:href="#f0bd3ff2-f1f3-4a4e-af10-8f999896726f"/><radialGradient id="ed456c7a-8277-4165-858b-e8e94585c1b0" cx="516.36" cy="351.77" r="182.9" xlink:href="#f0bd3ff2-f1f3-4a4e-af10-8f999896726f"/><radialGradient id="e9b8673a-9ac6-49d4-81c1-a1cf94f35ba5" cx="516.4" cy="351.79" r="182.93" xlink:href="#f0bd3ff2-f1f3-4a4e-af10-8f999896726f"/><radialGradient id="b3d81694-93f4-4dfb-8907-e75e359bdded" cx="516.4" cy="351.8" r="182.95" xlink:href="#f0bd3ff2-f1f3-4a4e-af10-8f999896726f"/><radialGradient id="a5746a73-cd81-47b7-a852-59e2a8c5d351" cx="516.4" cy="351.78" r="182.94" xlink:href="#f0bd3ff2-f1f3-4a4e-af10-8f999896726f"/><radialGradient id="b068a678-1eb2-48bc-9f4c-ef5a460b61b2" cx="516.41" cy="351.77" r="182.92" xlink:href="#f0bd3ff2-f1f3-4a4e-af10-8f999896726f"/><radialGradient id="b337a080-072c-4994-baec-17bfd674d8d4" cx="516.42" cy="351.82" r="182.98" xlink:href="#f0bd3ff2-f1f3-4a4e-af10-8f999896726f"/><radialGradient id="a93c7b6a-7576-4479-bb0c-84740c9ee432" cx="516.43" cy="351.79" r="182.92" xlink:href="#f0bd3ff2-f1f3-4a4e-af10-8f999896726f"/><radialGradient id="b34d7c88-bc5c-4dba-a8a9-a453859e749e" cx="516.43" cy="351.78" r="182.91" xlink:href="#f0bd3ff2-f1f3-4a4e-af10-8f999896726f"/><radialGradient id="bb81e235-8979-40ff-8b98-f34bf5d893e5" cx="516.37" cy="351.79" r="183" xlink:href="#f0bd3ff2-f1f3-4a4e-af10-8f999896726f"/><radialGradient id="b41a61ac-34c4-49ea-8a14-7807f3458ca3" cx="516.41" cy="351.78" r="182.94" xlink:href="#f0bd3ff2-f1f3-4a4e-af10-8f999896726f"/><radialGradient id="b6b7f8f3-a59c-4e40-b68d-36892b1fef5b" cx="516.43" cy="351.78" r="182.94" xlink:href="#f0bd3ff2-f1f3-4a4e-af10-8f999896726f"/><radialGradient id="f4324773-c1ad-4e63-9e9c-46632282d27c" cx="516.44" cy="351.78" r="182.96" xlink:href="#f0bd3ff2-f1f3-4a4e-af10-8f999896726f"/><radialGradient id="ad6dada0-7f13-4daf-84ba-040821dc1233" cx="516.39" cy="351.78" r="182.93" xlink:href="#f0bd3ff2-f1f3-4a4e-af10-8f999896726f"/><radialGradient id="b48921b9-656a-4e1f-9307-fccc4148ba74" cx="516.43" cy="351.78" r="182.96" xlink:href="#f0bd3ff2-f1f3-4a4e-af10-8f999896726f"/><radialGradient id="bdccbbde-998a-4d81-86c3-4fd0c86e773a" cx="516.47" cy="351.79" r="183" xlink:href="#f0bd3ff2-f1f3-4a4e-af10-8f999896726f"/><radialGradient id="e4f402b1-1434-4b13-a31b-9a3635947542" cx="516.41" cy="351.78" r="182.94" xlink:href="#f0bd3ff2-f1f3-4a4e-af10-8f999896726f"/><radialGradient id="b31194c4-5748-49b1-b01f-56ebfb0f8851" cx="516.4" cy="351.78" r="182.92" xlink:href="#f0bd3ff2-f1f3-4a4e-af10-8f999896726f"/><radialGradient id="ad9a67cd-4fed-4032-9f8f-5b2d56b7b268" cx="516.43" cy="351.79" r="182.97" xlink:href="#f0bd3ff2-f1f3-4a4e-af10-8f999896726f"/><radialGradient id="bfbf8034-54a0-489b-8955-c4c37c3f4f0f" cx="516.42" cy="351.79" r="182.95" xlink:href="#f0bd3ff2-f1f3-4a4e-af10-8f999896726f"/><radialGradient id="b5008b64-0adf-4e91-a788-fdd12c240704" cx="516.41" cy="351.79" r="182.94" xlink:href="#f0bd3ff2-f1f3-4a4e-af10-8f999896726f"/><radialGradient id="a8e40a23-e761-46db-bc2c-6c665638b0f6" cx="516.4" cy="351.79" r="182.98" xlink:href="#f0bd3ff2-f1f3-4a4e-af10-8f999896726f"/><radialGradient id="a959f2e8-174f-4499-b892-dea6ea13a1e1" cx="516.42" cy="351.78" r="182.94" xlink:href="#f0bd3ff2-f1f3-4a4e-af10-8f999896726f"/><radialGradient id="afa80901-c4d6-48c5-aa6d-494fddf0a7da" cx="516.42" cy="351.78" r="182.94" xlink:href="#f0bd3ff2-f1f3-4a4e-af10-8f999896726f"/><radialGradient id="bcaf2014-58b0-4c2f-8253-9c6aef8a2f00" cx="516.41" cy="351.79" r="182.94" xlink:href="#f0bd3ff2-f1f3-4a4e-af10-8f999896726f"/><radialGradient id="aeb203b1-0ab0-4ed0-833d-b474025c7ba6" cx="516.51" cy="351.78" r="183.02" xlink:href="#f0bd3ff2-f1f3-4a4e-af10-8f999896726f"/><radialGradient id="bd37cd52-3b05-4efd-b048-b9ca909a0b75" cx="516.45" cy="351.77" r="182.97" xlink:href="#f0bd3ff2-f1f3-4a4e-af10-8f999896726f"/><radialGradient id="b6094016-7f30-422a-bbde-c387d61811c1" cx="516.41" cy="351.79" r="182.94" xlink:href="#f0bd3ff2-f1f3-4a4e-af10-8f999896726f"/><radialGradient id="b3d1115f-0082-4857-843b-e68fbb8ef639" cx="516.41" cy="351.78" r="182.94" xlink:href="#f0bd3ff2-f1f3-4a4e-af10-8f999896726f"/><radialGradient id="bc763cc8-32f5-43fe-9003-159ec1668d39" cx="516.43" cy="351.78" r="182.96" xlink:href="#f0bd3ff2-f1f3-4a4e-af10-8f999896726f"/><radialGradient id="a838abf3-77e8-4279-8b6e-d2b2bf6f7a5a" cx="516.39" cy="351.79" r="182.91" xlink:href="#f0bd3ff2-f1f3-4a4e-af10-8f999896726f"/><radialGradient id="a9127d4a-5ddd-451e-865f-c06caa2d4a4e" cx="516.42" cy="351.78" r="182.98" xlink:href="#f0bd3ff2-f1f3-4a4e-af10-8f999896726f"/><radialGradient id="f02ae97b-8ef0-40b8-9540-4f55a2e0e0ed" cx="516.42" cy="351.79" r="182.94" xlink:href="#f0bd3ff2-f1f3-4a4e-af10-8f999896726f"/><radialGradient id="a320ccb1-9358-428d-993e-3874155249d4" cx="516.42" cy="351.78" r="182.94" xlink:href="#f0bd3ff2-f1f3-4a4e-af10-8f999896726f"/><radialGradient id="ba623f2c-4420-441b-9ae6-8660037f260b" cx="516.41" cy="351.78" r="182.94" xlink:href="#f0bd3ff2-f1f3-4a4e-af10-8f999896726f"/><radialGradient id="b322e02a-10bf-4260-a141-fd44ac223c5e" cx="516.41" cy="351.8" r="182.94" xlink:href="#f0bd3ff2-f1f3-4a4e-af10-8f999896726f"/><radialGradient id="ee3ca136-f63f-47f2-9487-a89a5935136f" cx="516.44" cy="351.77" r="182.93" xlink:href="#f0bd3ff2-f1f3-4a4e-af10-8f999896726f"/><radialGradient id="bd1c66bc-8868-4c6a-8dc0-615020c7c4a2" cx="516.41" cy="351.79" r="182.95" xlink:href="#f0bd3ff2-f1f3-4a4e-af10-8f999896726f"/><radialGradient id="ecb872ed-53f6-4c56-a616-dddd8cd0ba0c" cx="516.13" cy="351.78" r="182.68" xlink:href="#f0bd3ff2-f1f3-4a4e-af10-8f999896726f"/><radialGradient id="ac409198-6f03-4004-a51d-9f9b3101faae" cx="516.36" cy="351.78" r="182.9" xlink:href="#f0bd3ff2-f1f3-4a4e-af10-8f999896726f"/><radialGradient id="b01de6c3-0a9e-4c1b-a834-d4dfe5f79390" cx="516.48" cy="351.78" r="183.01" xlink:href="#f0bd3ff2-f1f3-4a4e-af10-8f999896726f"/><radialGradient id="a6b17dfc-54f9-4aba-a618-55708f137cf0" cx="516.37" cy="351.78" r="182.9" xlink:href="#f0bd3ff2-f1f3-4a4e-af10-8f999896726f"/><radialGradient id="e2778ae4-e4ba-4e7c-9e14-c78d1c7456af" cx="516.38" cy="351.79" r="182.91" xlink:href="#f0bd3ff2-f1f3-4a4e-af10-8f999896726f"/><radialGradient id="a93b28ac-03bd-4b35-b5f0-86d7004f44e1" cx="516.39" cy="351.79" r="182.93" xlink:href="#f0bd3ff2-f1f3-4a4e-af10-8f999896726f"/><radialGradient id="ea5dd058-1806-4952-be72-bb25e51d21e1" cx="516.42" cy="351.79" r="182.93" xlink:href="#f0bd3ff2-f1f3-4a4e-af10-8f999896726f"/><radialGradient id="acf5b730-7829-4e49-baa7-9fb5d720f635" cx="516.41" cy="351.77" r="182.97" xlink:href="#f0bd3ff2-f1f3-4a4e-af10-8f999896726f"/><radialGradient id="b490be98-52db-4341-bf97-4ac19b1d54bd" cx="516.43" cy="351.77" r="182.95" xlink:href="#f0bd3ff2-f1f3-4a4e-af10-8f999896726f"/><radialGradient id="aa38edce-1ef9-4640-bd01-033aa282100b" cx="516.4" cy="351.82" r="182.93" xlink:href="#f0bd3ff2-f1f3-4a4e-af10-8f999896726f"/><radialGradient id="b96bcf66-2e6a-4334-a8f3-4624dd8722da" cx="516.4" cy="351.79" r="182.95" xlink:href="#f0bd3ff2-f1f3-4a4e-af10-8f999896726f"/><radialGradient id="ea55fc62-65da-4623-9036-17d04e64be58" cx="516.4" cy="351.78" r="182.96" xlink:href="#f0bd3ff2-f1f3-4a4e-af10-8f999896726f"/></defs><path class="e1510370-f0ee-4b0e-b74e-7298cb64df03" d="M259.39,395.06H135.22C223,515.74,662.75,499.92,662.75,499.92,353,478,278.82,418,259.39,395.06Z"/><g class="a8c24b74-0b76-4366-8e81-2638429854df"><rect class="e1510370-f0ee-4b0e-b74e-7298cb64df03" x="-12.06" y="350.85" width="718.75" height="193.96"/></g><path class="bb1db28d-6f70-4a22-9712-7dfe2e53f958" d="M890.79,419.23H889c-.3-1.84-.2-12.5-.2-16.76-3.87,10.85-12.59,18.11-29.53,18.11-22,0-34.18-16.36-34.18-35.54,0-21.2,14.23-36.6,34.86-36.6,16.26,0,27.21,7.17,31.27,20.24H889c-4.06-12.4-15.1-18.4-29.34-18.4-19.56,0-32.53,14.82-32.53,34.76,0,18,11.71,33.7,32.14,33.7,17.63,0,29.44-8.81,29.44-27.79v-4.74H859.51v-1.84h31.28Z"/><path class="bb1db28d-6f70-4a22-9712-7dfe2e53f958" d="M911.5,385v34.28h-2V349.8H938c11.72,0,20.63,6,20.63,17.33,0,9.2-4.75,15.3-15.49,16.95,9.1,1.74,14.91,6.39,14.91,19.75v.87c0,8,.19,12.69.68,14.53h-2.13c-.68-3.3-.68-7.65-.68-14.53v-.87c0-11.72-4.36-18.88-21.5-18.88Zm0-1.84h23.34c13.75,0,21.69-4.36,21.69-15.79,0-10.16-7.55-15.68-19.46-15.68H911.5Z"/><path class="bb1db28d-6f70-4a22-9712-7dfe2e53f958" d="M977.05,349.8v40.28c0,23.14,14,28.66,25.76,28.66,15.3,0,26-7.26,26-28.85V349.8h2v39.7c0,22.75-11.23,31.08-28.08,31.08-17.24,0-27.79-10-27.79-30V349.8Z"/><path class="bb1db28d-6f70-4a22-9712-7dfe2e53f958" d="M1051.22,349.8h28.57c13.26,0,21.4,7.84,21.4,18.69,0,11.13-6.49,19.56-21.89,19.56h-26.14v31.18h-1.94Zm1.94,36.41h26.43c13.27,0,19.56-7.07,19.56-17.72,0-8.53-6.39-16.85-19.27-16.85h-26.72Z"/><path class="bb1db28d-6f70-4a22-9712-7dfe2e53f958" d="M1181.45,383.88c0,20.53-13.17,36.7-35.15,36.7-20.62,0-34.86-15.78-34.86-36.12,0-19.46,14.43-36,35.25-36C1166.64,348.44,1181.45,364,1181.45,383.88Zm-67.88.49c0,18.2,12.79,34.37,32.83,34.37,19.27,0,32.92-14.23,32.92-34.66,0-18.21-13.46-33.8-32.73-33.8C1128.29,350.28,1113.57,365.1,1113.57,384.37Z"/><path class="bb1db28d-6f70-4a22-9712-7dfe2e53f958" d="M1232.24,398.79c2,5.89,6.67,9.75,18,9.75,10.6,0,13.66-3.23,13.66-7.63,0-4.7-3.14-7.35-17.51-9.79-23.67-4.05-28-11.73-28-20.88,0-13.62,13.11-20.58,29.23-20.58,23.41,0,29.76,12,30.54,20H1261.6c-1-3.38-3.23-7.9-14.48-7.9-7.89,0-11.88,2.51-11.88,6.91,0,3.95,2.81,5.93,15.61,8.22,25.91,4.66,30,12.48,30,22.37,0,11.82-9.28,21.37-32.15,21.37-21.34,0-31-9.52-33-21.8Z"/><path class="bb1db28d-6f70-4a22-9712-7dfe2e53f958" d="M1310.78,351v68.2h-16.55V351Z"/><path class="bb1db28d-6f70-4a22-9712-7dfe2e53f958" d="M1328.71,351h56.13v13.16h-39.58v15.52h36.92V393h-36.92v26.26h-16.55Z"/><path class="bb1db28d-6f70-4a22-9712-7dfe2e53f958" d="M1451.09,390.45H1413V406h42.32l-1.91,13.26h-57V351h56.67v13.25H1413V377.2h38.06Z"/><path class="ab16dea2-b2b9-4e00-86d8-8eb8d418901c" d="M621.84,77.53c12.32.13,12.8.14,20.2.46-2.89-6.34-3.13-6.86-4.81-9.6-8.28-.59-9.35-.67-15.53-.87a56.13,56.13,0,0,0,.14,10"/><path class="be9cd41d-5a3c-4491-a992-c861f40a7e16" d="M537.2,79.39c13.82-1.66,14.36-1.73,22.94-2.45-.36-6.8-.38-7.2.06-10.16-10.26.66-11.33.74-18.53,1.48-3.1,5.56-3.22,5.78-4.47,11.13"/><path class="a29fc101-98c2-44af-b7a6-fa2c541285db" d="M484.85,85.37c14.75-2.72,15.33-2.82,24.82-4.19,2.58-7.42,2.74-7.87,5.36-11.35-11.5,1.5-13,1.69-20.63,3-6.07,6.32-6.43,6.69-9.55,12.52"/><path class="e7cc7b43-766b-463d-a2f7-153a55524dd3" d="M455.52,92.58c13.87-3.83,14.7-4.06,24.15-6.13,5.38-8.2,5.7-8.69,10.42-12.8-12,2.5-12.94,2.71-20.48,4.73-8.73,7.33-9.26,7.77-14.09,14.2"/><path class="f25fdabd-4f93-49e5-8789-3151ef190e98" d="M428.7,102.1c12.48-4.95,13.23-5.25,22-8.06,7.82-9.11,8.3-9.67,14.77-14.5-11.31,3.53-12.23,3.82-19.16,6.51-10.8,8.46-11.44,9-17.6,16"/><path class="a2f0b3b0-0fa9-483a-ac26-a46112136160" d="M405.55,113.93c10.53-6,11.16-6.41,18.88-10,9.68-10.15,10.25-10.75,18.11-16.4-10.12,4.56-11,4.94-16.86,8.28-12.3,9.69-13,10.25-20.13,18.07"/><path class="a33afcd9-7915-447a-b723-be4756f1f7bb" d="M387.2,127.91c8.2-7.21,8.52-7.48,14.81-11.73,11-11.23,11.66-11.92,20.49-18.42-2,1.34-4.7,3.06-6.65,4.45l-3.17,2.38c-5,4.1-11.67,9.58-16.44,14-2.71,2.82-6.45,6.44-9,9.37"/><path class="f9476fb8-5948-41c5-84ca-aca39b897c1b" d="M587.63,94.63c14.15-.8,14.7-.83,23.24-1.06-5.55-9.63-6-10.43-9.7-15.69-10.58.18-11.69.2-19.28.56,2.75,7.56,3.41,9.35,5.74,16.19"/><path class="bf74994a-e9f3-4ec4-8fb6-4ae850ef481b" d="M496.21,103.27c16.89-2.78,17.53-2.88,28.26-4.26-.56-10.34-.62-11.42-.35-17.13-13.86,1.71-15.31,1.9-24.72,3.43-2.36,9.62-2.45,10-3.19,18"/><path class="b699a2d2-3262-48b9-a6f3-965fb15625e9" d="M428.73,120.75c15.16-5.23,16.07-5.55,26.65-8.48,4-11.92,4.19-12.64,8-19.4-14,4-15.16,4.28-23.78,7.31-6.93,11.09-7.36,11.74-10.87,20.57"/><path class="b3c8cda4-a2e4-45ca-b7fa-71a84735475c" d="M400.43,133.27c13-6.42,13.75-6.8,23.11-10.53,5.81-12.68,6.16-13.44,11.38-20.83-12.56,5.08-13.57,5.5-21,9.25-8.53,12-9,12.75-13.48,22.11"/><path class="aa16dc82-0755-4b97-8c31-3516f81ee4ad" d="M377.34,148.1c10.3-7.51,10.9-7.95,18.72-12.44,7.15-13.49,7.57-14.3,13.84-22.38-10.53,6.17-11.39,6.68-17.29,11.11-9.61,13-10.18,13.8-15.27,23.71"/><path class="a7751fae-776b-4b30-9697-491403f2413e" d="M562.22,122.46c17.22-1.58,17.9-1.64,28.56-2.31-4.7-13.24-5-14-8.22-22.12-14.16.86-15.63,1-25.48,1.84,1.09,4.78,1.09,4.78,5.14,22.59"/><path class="a9f808b6-11aa-453e-87c4-3680a554ec9a" d="M514.78,127.58c18.43-2.67,19.14-2.77,30.81-4.07-2.42-11.93-3.16-15.52-4.51-22.71-15.7,1.74-17.34,1.93-28,3.47.61,12.39.64,13.14,1.68,23.31"/><path class="b0bc9c65-609c-4352-9eda-c5b2624b9215" d="M476.26,134.78c19-3.94,19.72-4.09,32-6.15-1-13.51-1.09-15.24-1.14-23.44-16.64,2.83-18.38,3.12-29.44,5.44-1.27,12.77-1.37,13.81-1.4,24.15"/><path class="e4ac96e2-4085-4357-996c-e3dd4036120a" d="M438.47,144.76c17.87-5.29,18.57-5.5,31.12-8.46.55-14.21.59-15.7,1.88-24.3-16.81,4.11-18.18,4.45-28.57,7.63-3.18,13.69-3.38,14.51-4.43,25.13"/><path class="aa0c36ea-e2c4-4d08-b7b5-18419b8cc7b5" d="M405.13,157.44c15.37-6.54,16.29-6.93,27.25-10.68,2.14-15.25,2.28-16.16,4.9-25.32-15.08,5.34-16.31,5.78-25.35,9.75-4.66,14.41-4.94,15.27-6.8,26.25"/><path class="e5303544-5c60-41a0-bfd7-54f331398824" d="M377.41,172.57c12.5-7.69,13.25-8.15,22.53-12.71,3.31-15.81,3.51-16.75,7.13-26.44-12.84,6.51-13.89,7-21.25,11.74-5.69,15.16-6,16.05-8.41,27.41"/><path class="e747128b-b636-4467-9459-c528be07cfc1" d="M356.22,189.92c9.37-8.88,9.75-9.23,17.06-14.52,4.06-16.4,4.31-17.38,8.61-27.61C371.8,155.36,371,156,365.58,161.34c-6.32,15.91-6.69,16.87-9.36,28.58"/><path class="ab6f9506-2288-4882-9352-36e987337359" d="M621.44,151.85c18-1.35,18.69-1.39,29.75-1.91-5.31-16.25-5.62-17.23-9.64-27.48-15.25.72-16.85.8-27.5,1.59,3.93,14.11,4.64,16.64,7.39,27.8"/><path class="e2e42e41-765e-4fb6-8ef2-d8bbce2c6c2b" d="M539.71,157.86c19.34-2.42,20.09-2.51,32.27-3.66-4-16.79-4.11-17.11-7-27.88-16.94,1.6-18.71,1.76-30.26,3.22,2.06,11.9,2.06,11.9,5,28.32"/><path class="a145abee-8e86-4a00-883e-4fb8e61e6e5f" d="M458.41,173.84c19.54-4.93,20.7-5.22,33.77-8-1.72-16.52-1.95-18.65-2.54-29-18.33,3.86-20.68,4.36-32.4,7.38.15,16.09.16,17.05,1.17,29.61"/><path class="a75913a7-a044-434a-a824-4c2dbaf04a27" d="M420.36,186.09c17.28-6.24,18.68-6.74,31.14-10.34-1-17.09-1.1-18.88-.83-29.73-17.6,5.28-19,5.72-29.69,9.7-1,16.75-1.1,17.76-.62,30.37"/><path class="a92cb486-aeba-4fbc-bcb5-9b483f5de40e" d="M388.26,201c14.59-7.59,15.47-8.05,26.13-12.5-.21-18.15-.22-19.23.86-30.5-15.17,6.53-16.4,7.09-25.27,11.84-1.77,16.95-1.91,18.34-1.72,31.16"/><path class="a80e2b92-37b4-4485-95d2-90e802929dbe" d="M362.93,218.14c11.19-8.65,11.86-9.18,20.47-14.39.22-18.51.23-19.61,1.85-31.29-12.28,7.69-13.29,8.31-20.08,13.77-2.05,16.37-2.35,18.88-2.24,31.91"/><path class="bf586551-6c3a-4aa8-b509-b84ce3644ad6" d="M353.44,171.58a152.89,152.89,0,0,1,7.93-13.85l5.59-7.44,1-1.29c5.43-6.25,12.9-14.36,18.79-20.17-6.37,8.4-6.75,8.9-9.49,14.53C362.63,159,361.76,160,353.44,171.58"/><path class="bb4fe03c-7cc3-403e-9794-68390fdc7855" d="M349.07,192.78c.76-10.61.79-11,3-17.64,12.72-16.95,13.49-18,23.87-28.63-2.81,9.13-3,9.67-3.19,15.69-14.53,17.11-15.4,18.14-23.67,30.58"/><path class="ab151b31-8118-48f8-9303-5b5ba823d86f" d="M354.22,214.85c-4.09-11-4.26-11.39-5-18.33,12.6-18.18,13.35-19.27,23.57-31,1.43,9.67,1.51,10.24,4.22,16.53-14,18.48-14.81,19.59-22.81,32.76"/><path class="e1f6916a-771e-4c9b-9987-98cf07c96a7f" d="M369.71,237.2c-8.95-10.69-9.67-11.57-13.56-18.5C368.48,199,369,198.24,378.74,185.58c6.25,10.06,6.49,10.45,12.09,16.76-12.66,19.4-13.68,21-21.12,34.86"/><path class="a9c4bbaf-49e1-4c50-964b-0a027db72277" d="M394,258.54c-12.8-10-13.86-10.81-20.71-17.59,10.91-20,11.81-21.59,20.76-35.2,10.14,9.5,10.75,10.07,18.82,16.07-10.81,19.72-12.19,22.26-18.87,36.72"/><path class="fce03471-0a82-4b39-97b2-e04540d4feea" d="M425.87,278.39c-16.23-9.23-17.56-10-26.89-16.32,9.93-21.27,10.53-22.55,18.43-37,13.76,9,14.59,9.51,24.81,15.08-9.33,20.72-10.53,23.38-16.35,38.26"/><path class="aecdfe07-c783-4ef1-a383-a6a6b6c1eb2e" d="M463.93,296.44c-19-8.33-20.54-9-31.93-14.81,8.61-21.94,9.13-23.26,15.92-38.49,16.85,8.24,17.86,8.74,29.88,13.77-7.71,21.21-8.89,24.46-13.87,39.53"/><path class="fca44b42-6b65-4a43-8030-a3963da60392" d="M506.73,312.37c-21-7.26-22.75-7.87-35.75-13,7.46-22.72,7.75-23.62,13.48-39.7,19.32,7.36,20.49,7.81,33.87,12.22-5.9,20.35-7.68,26.51-11.6,40.52"/><path class="ea1e7447-b1cd-4f40-9c59-0e76021cdfe7" d="M552.62,325.94c-22.25-6.1-24.07-6.59-38.19-11.06,5.44-19.83,5.44-19.83,11.24-40.68,21.14,6.33,22.41,6.71,36.64,10.39-5.43,23.79-5.43,23.79-9.69,41.35"/><path class="ba1ad664-d305-4bfc-b16f-34508fd7910b" d="M599.88,336.9c-22.62-4.82-24.47-5.22-39.19-8.88,5.31-22.69,6.12-26.18,9.4-41.49,22.18,5.16,23.51,5.46,38.06,8.32-4.3,23.67-4.55,25.09-8.27,42"/><path class="b1845712-dd78-410b-812b-c14a0352a931" d="M646.72,345c-22.12-3.45-23.93-3.73-38.72-6.54,4.8-23.08,5.43-26.05,8.08-42.15,22.34,3.83,23.67,4.06,38,6-3.52,23.74-3.82,25.67-7.39,42.66"/><path class="b8288f01-38e8-4541-a196-1aac80bf91b0" d="M689.92,350.46c-19.35-2.22-21.36-2.46-35.34-4.32,4.65-23.73,5.14-26.22,7.23-42.76,21,2.57,21.84,2.67,34.45,3.95-2.8,24.65-3,26.13-6.34,43.13"/><path class="e6fefb35-0cd1-4962-8d29-968f1e41e5f3" d="M725.45,353.61c-15.64-1.19-17.26-1.3-28.85-2.46,4.44-24.87,4.7-26.35,6.22-43.18,17.93,1.59,18.28,1.61,28.53,2.31-2.35,24.64-2.54,26.66-5.9,43.33"/><path class="b4da156c-f2d5-4084-be5e-ee9dc1d6d422" d="M752.48,354.89c-11.29-.36-12.75-.41-21.76-.94,4.4-24.68,4.67-26.16,5.88-43.34,13.73.75,14.27.78,21.87,1-2.3,25.12-2.44,26.63-6,43.27"/><path class="a6ccbc37-98c2-46c6-a53d-a6a4c6e68cfc" d="M329.9,220.5c.89-3.28,2-7.7,3.19-10.9,3.62-8.29,8.6-19.26,12.75-27.3l.57-1L353.23,170c-4.92,10.16-5.22,10.77-6.74,17.47-10.63,18.57-11.26,19.68-16.59,33"/><path class="acf1d2b3-d09b-440b-9bfd-0c49ceda898b" d="M330.31,244.24c-1.67-11.1-1.83-12.26-1.06-19.71,8.42-19.5,8.93-20.66,16.6-33.34-.55,10.06-.61,11.35.84,18.33-10.49,19.66-11.12,20.83-16.38,34.72"/><path class="ebba216d-08e5-43ea-a6ce-ab61855aa28d" d="M341.22,268.41c-7.07-11.93-7.34-12.4-9.81-20,8.45-20.74,8.77-21.54,16.31-35,4.3,11,4.56,11.69,9.32,18.79-9.91,20.22-10.72,21.87-15.82,36.23"/><path class="ee3faee5-f23f-46a1-b99f-d2354ff5ccbd" d="M362.7,292.16C351,281,350.06,280.07,344.21,272.56c8.14-21.43,8.47-22.26,15.7-36.47,9.24,10.87,9.8,11.51,17.46,18.38-9.16,21.19-9.91,22.92-14.67,37.69"/><path class="eb18f862-f5e3-42e6-8e9a-95c6ba5b8986" d="M392.57,314.29c-15.41-10.31-16.66-11.15-25.29-18.2,7.23-21.3,7.83-23,14.43-37.92C395,268.39,395.78,269,405.86,275.39c-7.91,21.09-8.92,23.79-13.29,38.9"/><path class="ac2b33ac-46eb-4fe6-8758-2b8abbc1bc0a" d="M429.29,334.47c-18.44-9.34-20-10.09-30.84-16.57,6.72-22.27,7.12-23.6,13.05-39.08,16.7,9.43,17.69,10,29.77,15.8-7.08,21.75-8,24.55-12,39.85"/><path class="b8757975-4ee6-4914-a6ff-ea2ddbda923b" d="M471.21,352.44c-20.7-8.26-22.39-8.92-35-14.72,6.13-22.62,6.51-24,11.77-40,19.46,8.47,20.62,9,34.22,14.12-6.24,21.92-7.2,25.28-11,40.6"/><path class="afc40c3e-92fa-4695-b7f3-8a0af0719a57" d="M516.59,367.89c-22-6.94-23.76-7.51-37.78-12.62,5.82-23.14,6.05-24,10.79-40.69,21.46,7.39,22.75,7.84,37.32,12.21-6.14,24-6.27,24.45-10.33,41.1"/><path class="ffd412ca-c9ce-4d39-876c-7da8c21fb97a" d="M563.63,380.45c-22.59-5.56-24.43-6-39-10.2,5.78-23.42,5.78-23.42,10.27-41.14,22.65,6.19,24,6.58,39,10.11-5.26,21.86-6.37,26.41-10.23,41.23"/><path class="a937df6c-bf29-4a8b-a47e-3bc5538c07b9" d="M610.5,390c-22.22-4.09-24-4.43-38.76-7.67,6-23.3,6.16-23.75,10.28-41.21,23,4.89,24.34,5.18,39.21,7.84-5.77,23.83-6.11,25.26-10.73,41"/><path class="b209d128-cf12-4f7d-a326-8ed05a9b079f" d="M655.41,396.37c-21-2.6-22.72-2.81-37-5.08,6.34-22.07,7-24.38,10.85-41C652,353.85,652,353.85,667,355.75c-6,23.66-6.37,25.07-11.59,40.62"/><path class="e78a10b0-c1f8-49af-839e-c98263a8edfd" d="M694.47,400c-17.28-1.4-19.09-1.55-31.76-2.86,7.21-22.42,7.8-24.26,11.64-40.53,19.85,2.2,20.63,2.28,32.26,3.3-6.3,23.9-6.55,24.83-12.14,40.09"/><path class="a0c390b9-11cf-4eac-81ee-2f253989a936" d="M725,401.65c-12.91-.49-14.57-.56-24.66-1.2,7.72-22.08,8.35-23.89,12.28-40,15.86,1.13,16.48,1.17,25.39,1.59-6.67,23.67-6.93,24.58-13,39.61"/><path class="a6d2c58a-05fb-49b4-b640-a0d8462159a4" d="M318.32,275.68l.42-8.9L320.46,255c2.07-9.72,5.16-22.62,7.92-32.18l1.16-3.46c-2.83,11.46-3,12.14-3,19.63-6,20.82-6.32,22.06-8.24,36.69"/><path class="f1b079f9-3b1c-415b-96a4-a9b57bcc41e9" d="M324.22,300.88c-4.56-12.46-4.74-12.95-5.64-20.89,3.56-21.8,3.7-22.65,8.23-36.87,2.05,11.8,2.18,12.51,5.49,20.12-5.86,21.49-6.21,22.77-8.08,37.64"/><path class="e4fbe6bb-8ae6-49ce-96e8-231ec18d54b2" d="M341,326c-10-12.32-10.39-12.81-14.68-20.78,3.47-22.21,3.62-23.07,8.05-37.79,7.4,12,7.68,12.47,14.55,20.16C343.32,309.2,342.86,311,341,326"/><path class="bee06f96-377c-4e9e-8f08-9bea4786d3c5" d="M367.58,349.71c-13.95-11-15.08-11.9-22.63-19.48,3.45-22.51,3.57-23.39,7.84-38.54,12.07,11.3,12.79,12,22.26,19.07-5.26,22.37-5.59,23.72-7.47,38.95"/><path class="b19d2c6c-5f8d-4542-a274-607cc07e8ea3" d="M401.53,371c-17.22-9.83-18.62-10.62-28.6-17.48,3.29-22.24,3.49-23.58,7.42-39,15.82,10.42,16.77,11.05,28.42,17.51-4.88,22.31-5.28,24.14-7.24,38.95"/><path class="a7269919-cf7f-4629-ae9e-98c436b9adb5" d="M441,389.74c-19.6-8.55-21.21-9.26-33.07-15.31,3.18-20.76,3.6-23.43,7.23-38.91,18.81,9.41,19.95,10,33.24,15.73-4.71,22-5.2,24.29-7.4,38.49"/><path class="f35492a3-4d24-4da4-a129-83a837da1313" d="M484.28,405.71c-21.12-7.23-22.85-7.81-36-13,3.65-21.12,3.88-22.39,7.49-38.38,21,8.28,22.24,8.77,36.64,13.67-4.75,20.94-5.49,24.17-8.1,37.74"/><path class="a98b450d-d112-450c-806b-9c163a0bfd3d" d="M529.39,418.81c-21.72-5.83-23.51-6.31-37.45-10.64,4.4-21.08,4.48-21.48,8.27-37.61,22.31,6.9,23.64,7.32,38.54,11.29-3.84,15.14-7.16,28.22-9.36,37"/><path class="ad70520c-e9b6-458d-a36d-a267a89a7f3f" d="M574.58,429c-21.48-4.42-23.24-4.78-37.38-8.22,3.79-14.48,7.39-28.21,9.62-36.82,22.75,5.48,24.12,5.8,38.92,8.82-6.43,21.65-6.55,22.06-11.16,36.22"/><path class="a50a0379-71d3-44be-8eb1-bf81c126ed55" d="M618.11,436.18c-20.43-3-22.1-3.24-35.89-5.75,6.14-18.47,7.26-21.79,11.52-36.11,22.32,4,23.65,4.24,37.81,6.26-7.38,20.85-7.82,22.1-13.44,35.6"/><path class="bdcc5700-aa21-44b7-a57d-a369b2b48ba7" d="M658.17,440.49c-17.72-1.58-20.45-1.82-32.87-3.36,7.82-18.73,8.83-21.13,13.86-35.51,21.4,2.54,21.4,2.54,34.73,3.77-8.34,20.29-9,21.94-15.72,35.1"/><path class="fa6dbfed-a6b7-4146-bd2e-2ddabc134d23" d="M690.74,442.53c-13.88-.68-15.67-.76-26.36-1.55,9.56-19.13,10.35-20.7,16-35,17.4,1.35,18.08,1.4,28,1.9-9.65,20.93-10,21.74-17.64,34.67"/><path class="a1bfe6c4-d4a3-43eb-8981-4903309e60cf" d="M714.57,442.91c-10,0-11.08,0-19.11-.22,10.79-18.84,11.67-20.38,18-34.59,13.14.44,13.65.46,20.68.48-10.65,20.77-11.07,21.58-19.55,34.33"/><path class="bb719056-33d4-457d-afdc-a85b3f07f1bd" d="M320.29,332.86l-1.09-5.94c-.92-9.67-1.89-22.59-2.15-32.3l.77-18.7c-.06,12.35-.06,12.58,1.39,19-.63,20.67-.7,23.32,1.08,38"/><path class="e1dc487c-d41c-4b19-a929-3a067d8cd960" d="M331.3,357.38c-7-12-7.31-12.49-9.84-20.27-1.77-19.74-2-22.78-1.1-37.85,4.69,12.36,5,13.1,10,20.94-.65,20.39-.73,23,.93,37.18"/><path class="fd4976f4-2aca-446e-9f3a-dd195eb1fb22" d="M352.65,381c-11.93-11.29-12.63-12-18.41-19.46-1.56-19.14-1.82-22.09-.86-37,10.07,12.17,10.47,12.64,18.89,20.26-.85,20-1,22.56.38,36.21"/><path class="fcb582c2-5e39-4cf6-a81c-13a8c0aa8ff5" d="M382.27,402.47c-15.21-9.9-16.46-10.71-25-17.61-1.14-18.51-1.32-21.37-.27-36.06,14.16,11,15,11.65,25.68,18.41-1.13,20-1.25,22.11-.37,35.26"/><path class="b1b24bb9-2ff8-4d2a-a413-b3f68d2a83a2" d="M417.82,421.33c-17.77-8.64-19.23-9.34-29.8-15.43-.62-19.08-.67-20.64.53-35.07,17.38,9.78,18.43,10.37,30.87,16.31-1.73,20.35-1.83,21.56-1.6,34.19"/><path class="b47e66c0-d3ab-4097-a8dd-5ecd88b0ebdf" d="M457.36,437.42c-19.4-7.3-21-7.89-33-13.13.29-18.75.31-19.86,1.88-34,19.71,8.5,20.88,9,34.52,14.08-2.51,19-2.77,21-3.42,33.05"/><path class="b3a0ac3f-e26b-432f-a41f-97c3196a8468" d="M499,450.71c-19.74-5.82-21.8-6.44-34.6-10.81,1.52-17.58,1.64-19,3.78-32.85,21.16,7.13,22.42,7.56,36.66,11.73-3.63,18.21-4.09,20.55-5.84,31.93"/><path class="b2b08900-73c3-4803-b988-ff18ad3bfe55" d="M541,461.19c-20-4.6-21.68-5-34.77-8.49,3.19-17.35,3.32-18,6.31-31.74,21.71,5.75,23,6.09,37.25,9.32-3.14,11-6.38,22.3-8.79,30.91"/><path class="b1f42065-bece-4e9e-9496-72a28aec93fe" d="M581.65,468.87c-19.13-3.27-20.69-3.54-33.51-6.17,2.15-7.08,7.39-24.22,9.35-30.74,21.41,4.35,22.69,4.6,36.41,6.9-7.08,18-7.35,18.68-12.25,30"/><path class="a80baf3f-b4d4-4bc3-85eb-f9e80635ddc5" d="M619.36,473.83c-17.5-2-18.93-2.14-31-3.92,6.92-15.31,8-17.66,12.9-29.86,20.32,2.92,21.53,3.1,34.18,4.47-9,17.5-9.57,18.55-16.08,29.31"/><path class="bb3cd38a-d36e-441e-bedb-221f7ee4eb9e" d="M652.28,476.31c-13.35-.79-16.93-1-26.85-1.88,9.26-15.1,10.45-17.05,16.77-29.22,18.33,1.6,19.06,1.64,29.63,2.31-11.07,17.65-11.51,18.33-19.55,28.79"/><path class="ed7d1d2b-e71f-4f68-8393-9d709977d346" d="M677.09,477c-10.32-.13-11.65-.14-20-.48,11.7-15.4,12.66-16.65,20.1-28.72,14.16.63,14.72.67,22.48.78C687,466.08,686.48,466.76,677.09,477"/><path class="b31cd4cb-1e23-43d2-91cd-86a98e6e1f1a" d="M844.14,457.76c.9,4,3.63,6,8.38,6,5.06,0,7.08-2.32,7.08-5.4,0-3.3-1.67-5.08-8.31-6.68-8.27-2-11-4.86-11-9.62,0-5.23,3.87-9.34,11.57-9.34,8.29,0,11.68,4.73,12.15,9.3H858.9c-.56-2.86-2.32-5.31-7.18-5.31-3.93,0-6.16,1.75-6.16,4.85s1.83,4.24,7.72,5.66c9.75,2.36,11.56,6.13,11.56,10.58,0,5.64-4.2,9.94-12.66,9.94s-12.45-4.6-13.18-10Z"/><path class="b31cd4cb-1e23-43d2-91cd-86a98e6e1f1a" d="M898.34,454.8c0,7.27-4.2,13.13-11.89,13.13-7.28,0-11.65-5.53-11.65-13s4.33-13.12,11.94-13.12C893.76,441.77,898.34,447,898.34,454.8Zm-18.59.05c0,5.35,2.6,9.13,6.87,9.13s6.78-3.61,6.78-9.11-2.43-9.15-6.88-9.15S879.75,449.23,879.75,454.85Z"/><path class="b31cd4cb-1e23-43d2-91cd-86a98e6e1f1a" d="M909.42,467.34v-36h4.81v36Z"/><path class="b31cd4cb-1e23-43d2-91cd-86a98e6e1f1a" d="M947.47,460.07c0,2.42,0,5.65,0,7.27h-4.7c-.09-.66-.14-2.14-.17-3.57-1.27,2.71-3.64,4.16-7.43,4.16-4.38,0-8.27-2.29-8.27-9.17V442.35h4.79v15.4c0,3.18,1,6.06,4.92,6.06,4.31,0,6-2.38,6-8.37V442.35h4.82Z"/><path class="b31cd4cb-1e23-43d2-91cd-86a98e6e1f1a" d="M980.47,459.62c-1,4.27-3.94,8.31-10.5,8.31-7.06,0-11.27-5-11.27-12.94,0-7.12,4.1-13.22,11.58-13.22s9.9,5.31,10.19,8.45h-4.76c-.58-2.44-2.09-4.5-5.52-4.5-4.18,0-6.54,3.6-6.54,9.11S966,464,970.05,464c3,0,4.7-1.62,5.64-4.38Z"/><path class="b31cd4cb-1e23-43d2-91cd-86a98e6e1f1a" d="M991.5,431.35h4.82v5.54H991.5Zm0,11h4.82v25H991.5Z"/><path class="b31cd4cb-1e23-43d2-91cd-86a98e6e1f1a" d="M1031,454.8c0,7.27-4.21,13.13-11.9,13.13-7.27,0-11.64-5.53-11.64-13s4.32-13.12,11.93-13.12C1026.36,441.77,1031,447,1031,454.8Zm-18.6.05c0,5.35,2.61,9.13,6.87,9.13s6.78-3.61,6.78-9.11-2.43-9.15-6.88-9.15S1012.35,449.23,1012.35,454.85Z"/><path class="b31cd4cb-1e23-43d2-91cd-86a98e6e1f1a" d="M1042,448.65c0-2.16,0-4.38,0-6.3h4.68c.12.72.19,3.18.19,3.93,1-2,3-4.51,7.75-4.51s8.33,3,8.33,9.54v16h-4.82V451.9c0-3.59-1.37-6-5-6-4.37,0-6.23,3.21-6.23,8.11v13.36H1042Z"/><path class="b31cd4cb-1e23-43d2-91cd-86a98e6e1f1a" d="M1078.85,455.77c0,4.7,2.39,8.21,6.48,8.21,3.74,0,4.93-1.87,5.71-3.64h4.84c-1,3.18-3.65,7.59-10.7,7.59-7.93,0-11.2-6.34-11.2-12.79,0-7.51,3.8-13.37,11.48-13.37,8.16,0,10.85,6.41,10.85,11.92a19.68,19.68,0,0,1-.07,2.08Zm12.59-3.28c0-3.87-1.94-7-6-7s-6,2.91-6.4,7Z"/><path class="b31cd4cb-1e23-43d2-91cd-86a98e6e1f1a" d="M1110.33,460.12c.68,2.59,2.63,4.11,5.86,4.11,3.45,0,4.8-1.46,4.8-3.58s-1.14-3.19-5.68-4.3c-7.33-1.79-8.79-4-8.79-7.45s2.6-7.13,9.24-7.13,9.29,3.81,9.59,7.27h-4.64c-.33-1.48-1.44-3.63-5.16-3.63-3.27,0-4.25,1.55-4.25,3.09,0,1.74,1,2.61,5.46,3.67,7.72,1.83,9.17,4.42,9.17,8.12,0,4.34-3.41,7.64-9.9,7.64-6.69,0-9.85-3.34-10.47-7.81Z"/><path class="b31cd4cb-1e23-43d2-91cd-86a98e6e1f1a" d="M1155.72,433.25H1178v4.29h-17.29v10.55h16.2v4.28h-16.2v15h-5Z"/><path class="b31cd4cb-1e23-43d2-91cd-86a98e6e1f1a" d="M1188.47,431.35h4.82v5.54h-4.82Zm0,11h4.82v25h-4.82Z"/><path class="b31cd4cb-1e23-43d2-91cd-86a98e6e1f1a" d="M1206.11,448.65c0-2.16,0-4.38,0-6.3h4.68a39.33,39.33,0,0,1,.19,3.93c1-2,3-4.51,7.75-4.51s8.33,3,8.33,9.54v16h-4.81V451.9c0-3.59-1.37-6-5-6-4.37,0-6.23,3.21-6.23,8.11v13.36h-4.82Z"/><path class="b31cd4cb-1e23-43d2-91cd-86a98e6e1f1a" d="M1258.5,461.7a41.39,41.39,0,0,0,.34,5.64h-4.61a13.15,13.15,0,0,1-.39-3.11c-.88,1.62-2.82,3.7-7.59,3.7-5.91,0-8.44-3.86-8.44-7.67,0-5.6,4.42-8.17,11.83-8.17h4.13v-2c0-2.12-.69-4.63-5.08-4.63-3.94,0-4.63,1.91-5.06,3.84H1239c.34-3.64,2.59-7.55,9.86-7.52,6.22,0,9.65,2.53,9.65,8.26Zm-4.7-6.38H1250c-4.83,0-7.28,1.35-7.28,4.66,0,2.45,1.66,4.27,4.62,4.27,5.71,0,6.47-3.86,6.47-8.16Z"/><path class="b31cd4cb-1e23-43d2-91cd-86a98e6e1f1a" d="M1271.36,448.65c0-2.16,0-4.38,0-6.3H1276c.12.72.19,3.18.19,3.93,1-2,3-4.51,7.75-4.51s8.33,3,8.33,9.54v16h-4.82V451.9c0-3.59-1.37-6-5-6-4.36,0-6.22,3.21-6.22,8.11v13.36h-4.82Z"/><path class="b31cd4cb-1e23-43d2-91cd-86a98e6e1f1a" d="M1325.11,459.62c-1,4.27-3.93,8.31-10.5,8.31-7,0-11.27-5-11.27-12.94,0-7.12,4.1-13.22,11.58-13.22s9.91,5.31,10.19,8.45h-4.76c-.58-2.44-2.08-4.5-5.52-4.5-4.18,0-6.54,3.6-6.54,9.11s2.32,9.17,6.41,9.17c3,0,4.69-1.62,5.63-4.38Z"/><path class="b31cd4cb-1e23-43d2-91cd-86a98e6e1f1a" d="M1336.14,431.35H1341v5.54h-4.82Zm0,11H1341v25h-4.82Z"/><path class="b31cd4cb-1e23-43d2-91cd-86a98e6e1f1a" d="M1356.92,455.77c0,4.7,2.39,8.21,6.48,8.21,3.74,0,4.93-1.87,5.7-3.64H1374c-1,3.18-3.65,7.59-10.7,7.59-7.93,0-11.2-6.34-11.2-12.79,0-7.51,3.8-13.37,11.48-13.37,8.16,0,10.85,6.41,10.85,11.92a19.68,19.68,0,0,1-.07,2.08Zm12.59-3.28c0-3.87-1.94-7-6-7s-6,2.91-6.41,7Z"/><path class="b31cd4cb-1e23-43d2-91cd-86a98e6e1f1a" d="M1385.43,449.14c0-3.3,0-5.31,0-6.79h4.73c.07.68.14,2.74.14,5a8.67,8.67,0,0,1,8.34-5.55v4.74c-5.1.1-8.34,2.52-8.34,8.94v11.89h-4.82Z"/><path class="b31cd4cb-1e23-43d2-91cd-86a98e6e1f1a" d="M1426.94,461.7a43.13,43.13,0,0,0,.34,5.64h-4.61a13.15,13.15,0,0,1-.39-3.11c-.88,1.62-2.82,3.7-7.58,3.7-5.92,0-8.44-3.86-8.44-7.67,0-5.6,4.42-8.17,11.82-8.17h4.13v-2c0-2.12-.69-4.63-5.08-4.63-3.93,0-4.63,1.91-5.05,3.84h-4.64c.33-3.64,2.58-7.55,9.85-7.52,6.22,0,9.65,2.53,9.65,8.26Zm-4.7-6.38h-3.81c-4.82,0-7.27,1.35-7.27,4.66,0,2.45,1.65,4.27,4.62,4.27,5.7,0,6.46-3.86,6.46-8.16Z"/><path class="b31cd4cb-1e23-43d2-91cd-86a98e6e1f1a" d="M1442.11,460.12c.68,2.59,2.63,4.11,5.86,4.11,3.45,0,4.8-1.46,4.8-3.58s-1.14-3.19-5.68-4.3c-7.33-1.79-8.79-4-8.79-7.45s2.6-7.13,9.24-7.13,9.29,3.81,9.59,7.27h-4.64c-.33-1.48-1.44-3.63-5.16-3.63-3.27,0-4.25,1.55-4.25,3.09,0,1.74,1,2.61,5.46,3.67,7.72,1.83,9.17,4.42,9.17,8.12,0,4.34-3.41,7.64-9.9,7.64-6.69,0-9.86-3.34-10.48-7.81Z"/></svg>